<svg xmlns="http://www.w3.org/2000/svg" xmlns:xlink="http://www.w3.org/1999/xlink" width="500" zoomAndPan="magnify" viewBox="0 0 375 374.999991" height="500" preserveAspectRatio="xMidYMid meet" version="1.0"><defs><g/><clipPath id="59aa977631"><path d="M 153.769531 70.371094 L 217.757812 70.371094 L 217.757812 263.378906 L 153.769531 263.378906 Z M 153.769531 70.371094 " clip-rule="nonzero"/></clipPath></defs><rect x="-37.5" width="450" fill="#ffffff" y="-37.499999" height="449.999989" fill-opacity="1"/><rect x="-37.5" width="450" fill="#1e1e1e" y="-37.499999" height="449.999989" fill-opacity="1"/><path stroke-linecap="butt" transform="matrix(1.043576, 0, 0, 1.043576, 162.147195, 95.719645)" fill="none" stroke-linejoin="miter" d="M 8.018994 73.873732 C 8.018994 123.874581 43.89698 157.207233 87.987413 157.207233 C 115.375961 157.207233 141.667768 148.717794 149.52836 136.863273 L 149.52836 118.907436 C 137.168515 136.552593 113.14505 153.999363 87.987413 153.999363 C 50.978999 153.999363 20.813043 121.958094 20.813043 73.873732 C 20.813043 25.793113 50.978999 -6.248156 87.987413 -6.248156 C 115.375961 -6.248156 138.770579 12.647209 141.196133 30.603046 C 141.196133 30.603046 148.394189 30.91747 148.394189 21.802927 C 148.394189 1.103368 116.978024 -9.45977 87.987413 -9.45977 C 43.89698 -9.45977 8.018994 23.876626 8.018994 73.873732 Z M 8.018994 73.873732 " stroke="#ffff00" stroke-width="26.041275" stroke-opacity="1" stroke-miterlimit="4"/><g fill="#ffff00" fill-opacity="1"><g transform="translate(162.147195, 256.430352)"><g><path d="M 8.363281 -83.617188 C 8.363281 -31.441406 45.820312 3.34375 91.8125 3.34375 C 120.40625 3.34375 147.835938 -5.519531 156.027344 -17.894531 L 156.027344 -36.625 C 143.152344 -18.226562 118.066406 0 91.8125 0 C 53.179688 0 21.742188 -33.445312 21.742188 -83.617188 C 21.742188 -133.785156 53.179688 -167.234375 91.8125 -167.234375 C 120.40625 -167.234375 144.824219 -147.5 147.332031 -128.769531 C 147.332031 -128.769531 154.859375 -128.433594 154.859375 -137.96875 C 154.859375 -159.539062 122.082031 -170.578125 91.8125 -170.578125 C 45.820312 -170.578125 8.363281 -135.792969 8.363281 -83.617188 Z M 8.363281 -83.617188 "/></g></g></g><g clip-path="url(#59aa977631)"><path fill="#1e1e1e" d="M 153.769531 70.371094 L 217.757812 70.371094 L 217.757812 263.378906 L 153.769531 263.378906 Z M 153.769531 70.371094 " fill-opacity="1" fill-rule="nonzero"/></g><path stroke-linecap="butt" transform="matrix(1.043576, 0, 0, 1.043576, 0.0000045, 95.719645)" fill="none" stroke-linejoin="miter" d="M 62.630196 -6.248156 L 62.630196 153.999363 L 113.25615 153.999363 C 156.212412 153.999363 189.035997 120.352288 189.035997 73.873732 C 189.035997 27.395176 156.212412 -6.248156 113.25615 -6.248156 Z M 75.424245 4.666837 C 76.08678 -1.438223 78.785583 -3.040286 83.756472 -3.040286 C 88.723617 -3.040286 98.818863 -3.197498 103.160904 -3.197498 C 153.786858 -3.197498 175.264989 36.708106 175.264989 73.873732 C 175.264989 111.043101 153.786858 151.768453 103.160904 151.768453 C 98.818863 151.768453 88.723617 151.614984 83.756472 151.614984 C 78.003267 151.614984 75.267033 149.342899 75.267033 140.696248 C 75.267033 120.352288 75.424245 15.855079 75.424245 4.666837 Z M 75.424245 4.666837 " stroke="#ffff00" stroke-width="26.041275" stroke-opacity="1" stroke-miterlimit="4"/><g fill="#ffff00" fill-opacity="1"><g transform="translate(51.966829, 256.430352)"><g><path d="M 13.378906 -167.234375 L 13.378906 0 L 66.222656 0 C 111.042969 0 145.324219 -35.117188 145.324219 -83.617188 C 145.324219 -132.113281 111.042969 -167.234375 66.222656 -167.234375 Z M 26.757812 -155.859375 C 27.425781 -162.214844 30.269531 -163.886719 35.453125 -163.886719 C 40.636719 -163.886719 51.171875 -164.054688 55.6875 -164.054688 C 108.535156 -164.054688 130.945312 -122.414062 130.945312 -83.617188 C 130.945312 -44.820312 108.535156 -2.339844 55.6875 -2.339844 C 51.171875 -2.339844 40.636719 -2.507812 35.453125 -2.507812 C 29.433594 -2.507812 26.589844 -4.851562 26.589844 -13.878906 C 26.589844 -35.117188 26.757812 -144.15625 26.757812 -155.859375 Z M 26.757812 -155.859375 "/></g></g></g></svg>