<svg xmlns="http://www.w3.org/2000/svg" xmlns:xlink="http://www.w3.org/1999/xlink" width="500" zoomAndPan="magnify" viewBox="0 0 375 374.999991" height="500" preserveAspectRatio="xMidYMid meet" version="1.0"><defs><g/><clipPath id="38b373ccaf"><path d="M 132.25 98.945312 L 242.5 98.945312 L 242.5 209.195312 L 132.25 209.195312 Z M 132.25 98.945312 " clip-rule="nonzero"/></clipPath></defs><rect x="-37.5" width="450" fill="#ffffff" y="-37.499999" height="449.999989" fill-opacity="1"/><rect x="-37.5" width="450" fill="#c0e6f3" y="-37.499999" height="449.999989" fill-opacity="1"/><path fill="#c0e6f3" d="M 188.128906 154.71875 C 188.054688 154.71875 187.992188 154.707031 187.917969 154.707031 C 188.128906 155.007812 188.347656 155.304688 188.542969 155.609375 C 189.085938 155.15625 189.300781 154.550781 189.253906 153.972656 L 188.136719 153.972656 C 188.136719 154.21875 188.140625 154.460938 188.128906 154.71875 " fill-opacity="1" fill-rule="nonzero"/><path fill="#c0e6f3" d="M 187.183594 156.042969 C 187.226562 155.59375 187.296875 155.144531 187.359375 154.691406 C 186.714844 154.679688 186.074219 154.660156 185.472656 154.605469 C 185.679688 155.394531 186.34375 155.980469 187.183594 156.042969 " fill-opacity="1" fill-rule="nonzero"/><path fill="#c0e6f3" d="M 224.210938 179.269531 L 217.648438 175.476562 L 220.632812 170.3125 L 227.191406 174.101562 Z M 206.785156 194.429688 L 202.992188 187.867188 L 208.15625 184.882812 L 211.953125 191.445312 Z M 190.082031 198.835938 L 184.113281 198.835938 L 184.113281 191.261719 L 190.082031 191.261719 Z M 167.445312 194.308594 L 162.277344 191.328125 L 166.070312 184.769531 L 171.234375 187.75 Z M 150.101562 179.066406 L 147.121094 173.902344 L 153.679688 170.109375 L 156.664062 175.277344 Z M 231.71875 155.324219 L 231.71875 157.433594 L 224.148438 157.433594 L 224.148438 155.324219 L 191.132812 155.324219 C 190.914062 156.125 190.402344 156.867188 189.601562 157.421875 C 190.613281 161.703125 189.65625 157.707031 194.640625 178.324219 C 194.546875 179.578125 194.457031 180.847656 194.246094 182.132812 C 193.46875 181.082031 192.820312 180.003906 192.15625 178.917969 C 187.164062 158.273438 188.101562 162.152344 187.109375 158.113281 C 185.4375 158.027344 183.988281 156.910156 183.484375 155.324219 L 150.292969 155.324219 L 150.292969 157.195312 L 142.710938 157.195312 L 142.710938 155.324219 L 138.183594 155.324219 C 138.820312 181.878906 160.617188 203.28125 187.324219 203.28125 C 214.027344 203.28125 235.824219 181.878906 236.460938 155.324219 L 231.71875 155.324219 " fill-opacity="1" fill-rule="nonzero"/><path fill="#c0e6f3" d="M 188.089844 152.332031 C 188.125 152.859375 188.136719 153.40625 188.136719 153.972656 L 189.253906 153.972656 C 189.203125 153.285156 188.792969 152.632812 188.089844 152.332031 " fill-opacity="1" fill-rule="nonzero"/><g clip-path="url(#38b373ccaf)"><path fill="#224573" d="M 187.324219 203.28125 C 160.617188 203.28125 138.820312 181.878906 138.183594 155.324219 C 138.164062 154.917969 138.164062 154.527344 138.164062 154.117188 C 138.164062 127.007812 160.214844 104.960938 187.324219 104.960938 C 214.429688 104.960938 236.480469 127.007812 236.480469 154.117188 C 236.480469 154.527344 236.480469 154.917969 236.460938 155.324219 C 235.824219 181.878906 214.027344 203.28125 187.324219 203.28125 Z M 187.324219 98.992188 C 156.921875 98.992188 132.199219 123.730469 132.199219 154.117188 C 132.199219 154.527344 132.199219 154.929688 132.21875 155.324219 C 132.859375 185.171875 157.324219 209.242188 187.324219 209.242188 C 217.320312 209.242188 241.785156 185.171875 242.425781 155.324219 C 242.449219 154.929688 242.449219 154.527344 242.449219 154.117188 C 242.449219 123.730469 217.722656 98.992188 187.324219 98.992188 " fill-opacity="1" fill-rule="nonzero"/></g><path fill="#ffffff" d="M 220.746094 138.554688 L 217.765625 133.390625 L 224.328125 129.597656 L 227.308594 134.765625 Z M 208.371094 123.902344 L 203.203125 120.917969 L 206.988281 114.355469 L 212.152344 117.339844 Z M 190.3125 117.402344 L 184.351562 117.402344 L 184.351562 109.828125 L 190.3125 109.828125 Z M 166.273438 123.785156 L 162.480469 117.222656 L 167.648438 114.238281 L 171.441406 120.800781 Z M 153.808594 138.34375 L 147.238281 134.5625 L 150.21875 129.398438 L 156.792969 133.179688 Z M 187.324219 104.960938 C 160.214844 104.960938 138.164062 127.007812 138.164062 154.117188 C 138.164062 154.527344 138.164062 154.917969 138.183594 155.324219 L 142.710938 155.324219 L 142.710938 151.234375 L 150.292969 151.234375 L 150.292969 155.324219 L 183.484375 155.324219 C 183.371094 154.929688 183.308594 154.503906 183.308594 154.066406 C 183.292969 154.046875 183.265625 154.015625 183.210938 153.972656 C 181.933594 152.660156 170.074219 140.582031 169.5 140.058594 C 169.351562 138.628906 169.203125 137.214844 169.300781 135.554688 C 170.96875 135.476562 172.386719 135.660156 173.804688 135.832031 C 174.359375 136.457031 187.246094 149.5625 187.835938 150.15625 C 189.972656 150.433594 191.242188 152.164062 191.316406 153.972656 C 191.335938 154.429688 191.285156 154.886719 191.132812 155.324219 L 224.148438 155.324219 L 224.148438 151.46875 L 231.71875 151.46875 L 231.71875 155.324219 L 236.460938 155.324219 C 236.480469 154.917969 236.480469 154.527344 236.480469 154.117188 C 236.480469 127.007812 214.429688 104.960938 187.324219 104.960938 " fill-opacity="1" fill-rule="nonzero"/><path fill="#224573" d="M 190.3125 109.828125 L 190.3125 117.402344 L 184.351562 117.402344 L 184.351562 109.828125 L 190.3125 109.828125 " fill-opacity="1" fill-rule="nonzero"/><path fill="#224573" d="M 171.441406 120.800781 L 166.273438 123.785156 L 162.480469 117.222656 L 167.648438 114.238281 L 171.441406 120.800781 " fill-opacity="1" fill-rule="nonzero"/><path fill="#224573" d="M 156.792969 133.179688 L 153.808594 138.34375 L 147.238281 134.5625 L 150.21875 129.398438 L 156.792969 133.179688 " fill-opacity="1" fill-rule="nonzero"/><path fill="#224573" d="M 150.292969 151.234375 L 150.292969 153.972656 L 142.710938 153.972656 L 142.710938 151.234375 L 150.292969 151.234375 " fill-opacity="1" fill-rule="nonzero"/><path fill="#224573" d="M 150.292969 153.972656 L 150.292969 157.195312 L 142.710938 157.195312 L 142.710938 153.972656 L 150.292969 153.972656 " fill-opacity="1" fill-rule="nonzero"/><path fill="#224573" d="M 147.121094 173.898438 L 150.105469 179.0625 L 156.667969 175.277344 L 153.6875 170.109375 L 147.121094 173.898438 " fill-opacity="1" fill-rule="nonzero"/><path fill="#224573" d="M 162.28125 191.320312 L 167.445312 194.304688 L 171.234375 187.742188 L 166.066406 184.757812 L 162.28125 191.320312 " fill-opacity="1" fill-rule="nonzero"/><path fill="#224573" d="M 184.117188 198.835938 L 190.082031 198.835938 L 190.082031 191.257812 L 184.117188 191.257812 L 184.117188 198.835938 " fill-opacity="1" fill-rule="nonzero"/><path fill="#224573" d="M 202.996094 187.859375 L 206.785156 194.425781 L 211.953125 191.441406 L 208.160156 184.875 L 202.996094 187.859375 " fill-opacity="1" fill-rule="nonzero"/><path fill="#224573" d="M 217.648438 175.480469 L 224.210938 179.269531 L 227.191406 174.101562 L 220.632812 170.316406 L 217.648438 175.480469 " fill-opacity="1" fill-rule="nonzero"/><path fill="#224573" d="M 224.148438 151.46875 L 224.148438 157.433594 L 231.71875 157.433594 L 231.71875 151.46875 L 224.148438 151.46875 " fill-opacity="1" fill-rule="nonzero"/><path fill="#224573" d="M 227.308594 134.765625 L 220.746094 138.554688 L 217.765625 133.390625 L 224.328125 129.597656 L 227.308594 134.765625 " fill-opacity="1" fill-rule="nonzero"/><path fill="#224573" d="M 212.152344 117.339844 L 208.371094 123.902344 L 203.203125 120.917969 L 206.988281 114.355469 L 212.152344 117.339844 " fill-opacity="1" fill-rule="nonzero"/><path fill="#224573" d="M 187.183594 156.046875 C 186.632812 156.007812 186.148438 155.742188 185.832031 155.324219 C 185.664062 155.113281 185.546875 154.867188 185.472656 154.601562 C 186.078125 154.664062 186.714844 154.683594 187.363281 154.695312 C 187.335938 154.910156 187.300781 155.121094 187.269531 155.324219 C 187.234375 155.570312 187.207031 155.816406 187.183594 156.046875 Z M 189.601562 157.421875 C 190.402344 156.867188 190.914062 156.125 191.132812 155.324219 C 191.285156 154.886719 191.335938 154.429688 191.316406 153.972656 L 189.25 153.972656 C 189.28125 154.4375 189.152344 154.917969 188.824219 155.324219 C 188.738281 155.421875 188.640625 155.515625 188.539062 155.597656 C 188.472656 155.503906 188.421875 155.421875 188.355469 155.324219 C 188.21875 155.121094 188.066406 154.910156 187.917969 154.703125 C 187.992188 154.703125 188.058594 154.71875 188.132812 154.71875 C 188.140625 154.464844 188.132812 154.21875 188.132812 153.972656 L 183.210938 153.972656 C 183.265625 154.015625 183.292969 154.046875 183.308594 154.066406 C 183.308594 154.503906 183.371094 154.929688 183.484375 155.324219 C 183.988281 156.910156 185.4375 158.027344 187.109375 158.113281 C 188.101562 162.152344 187.164062 158.273438 192.15625 178.917969 C 192.820312 180.003906 193.46875 181.082031 194.246094 182.132812 C 194.457031 180.847656 194.546875 179.578125 194.640625 178.324219 C 189.65625 157.707031 190.613281 161.703125 189.601562 157.421875 " fill-opacity="1" fill-rule="nonzero"/><path fill="#224573" d="M 191.316406 153.972656 L 189.25 153.972656 C 189.199219 153.277344 188.792969 152.628906 188.089844 152.332031 C 188.121094 152.867188 188.140625 153.40625 188.132812 153.972656 L 183.210938 153.972656 C 181.933594 152.660156 170.074219 140.582031 169.5 140.058594 C 169.351562 138.628906 169.203125 137.214844 169.300781 135.554688 C 170.96875 135.476562 172.386719 135.660156 173.804688 135.832031 C 174.359375 136.457031 187.246094 149.5625 187.835938 150.15625 C 189.972656 150.433594 191.242188 152.164062 191.316406 153.972656 " fill-opacity="1" fill-rule="nonzero"/><g fill="#000000" fill-opacity="1"><g transform="translate(114.862775, 251.606235)"><g><path d="M 13.402344 0.523438 C 21.101562 0.523438 24.777344 -3.953125 25.019531 -9.484375 L 25.019531 -9.625 L 20.367188 -9.625 L 20.367188 -9.449219 C 20.15625 -5.632812 17.496094 -3.5 13.4375 -3.5 C 8.921875 -3.5 6.402344 -6.613281 6.402344 -12.597656 L 6.402344 -13.402344 C 6.402344 -19.386719 8.921875 -22.464844 13.472656 -22.464844 C 17.882812 -22.464844 20.050781 -19.703125 20.332031 -16.519531 L 20.332031 -16.414062 L 24.953125 -16.414062 L 24.953125 -16.550781 C 24.707031 -22.011719 20.996094 -26.492188 13.4375 -26.492188 C 5.808594 -26.492188 1.644531 -21.941406 1.644531 -13.226562 L 1.644531 -12.773438 C 1.644531 -4.023438 5.808594 0.523438 13.402344 0.523438 Z M 13.402344 0.523438 "/></g></g></g><g fill="#000000" fill-opacity="1"><g transform="translate(145.971714, 251.606235)"><g><path d="M 3.078125 0 L 20.472656 0 L 20.472656 -3.917969 L 7.769531 -3.917969 L 7.769531 -26 L 3.078125 -26 Z M 3.078125 0 "/></g></g></g><g fill="#000000" fill-opacity="1"><g transform="translate(171.796848, 251.606235)"><g><path d="M 13.648438 0.523438 C 21.417969 0.523438 25.652344 -4.058594 25.652344 -12.773438 L 25.652344 -13.261719 C 25.652344 -21.941406 21.417969 -26.492188 13.648438 -26.492188 C 5.878906 -26.492188 1.644531 -21.941406 1.644531 -13.261719 L 1.644531 -12.773438 C 1.644531 -4.058594 5.878906 0.523438 13.648438 0.523438 Z M 6.402344 -12.632812 L 6.402344 -13.402344 C 6.402344 -19.386719 8.957031 -22.464844 13.648438 -22.464844 C 18.335938 -22.464844 20.925781 -19.386719 20.925781 -13.402344 L 20.925781 -12.632812 C 20.925781 -6.613281 18.335938 -3.5 13.648438 -3.5 C 8.957031 -3.5 6.402344 -6.613281 6.402344 -12.632812 Z M 6.402344 -12.632812 "/></g></g></g><g fill="#000000" fill-opacity="1"><g transform="translate(203.675617, 251.606235)"><g><path d="M 13.402344 0.523438 C 21.101562 0.523438 24.777344 -3.953125 25.019531 -9.484375 L 25.019531 -9.625 L 20.367188 -9.625 L 20.367188 -9.449219 C 20.15625 -5.632812 17.496094 -3.5 13.4375 -3.5 C 8.921875 -3.5 6.402344 -6.613281 6.402344 -12.597656 L 6.402344 -13.402344 C 6.402344 -19.386719 8.921875 -22.464844 13.472656 -22.464844 C 17.882812 -22.464844 20.050781 -19.703125 20.332031 -16.519531 L 20.332031 -16.414062 L 24.953125 -16.414062 L 24.953125 -16.550781 C 24.707031 -22.011719 20.996094 -26.492188 13.4375 -26.492188 C 5.808594 -26.492188 1.644531 -21.941406 1.644531 -13.226562 L 1.644531 -12.773438 C 1.644531 -4.023438 5.808594 0.523438 13.402344 0.523438 Z M 13.402344 0.523438 "/></g></g></g><g fill="#000000" fill-opacity="1"><g transform="translate(234.784559, 251.606235)"><g><path d="M 3.078125 0 L 7.769531 0 L 7.769531 -11.375 L 12.039062 -11.375 L 19.457031 0 L 24.847656 0 L 15.957031 -13.226562 L 15.957031 -13.402344 L 23.65625 -26 L 18.230469 -26 L 12.039062 -15.1875 L 7.769531 -15.1875 L 7.769531 -26 L 3.078125 -26 Z M 3.078125 0 "/></g></g></g><g fill="#000000" fill-opacity="1"><g transform="translate(172.403119, 272.9563)"><g><path d="M 0.0820312 0 L 3.191406 0 L 3.554688 -1.734375 L 6.074219 -1.734375 L 6.421875 0 L 9.542969 0 L 6.828125 -10.414062 L 2.785156 -10.414062 Z M 4.015625 -3.972656 L 4.632812 -6.941406 L 4.800781 -7.894531 L 4.828125 -7.894531 L 4.996094 -6.941406 L 5.613281 -3.972656 Z M 4.015625 -3.972656 "/></g></g></g><g fill="#000000" fill-opacity="1"><g transform="translate(183.415758, 272.9563)"><g><path d="M 0.714844 0 L 3.722656 0 L 3.722656 -2.601562 L 5.164062 -2.601562 C 7.332031 -2.601562 8.734375 -3.847656 8.734375 -6.480469 L 8.734375 -6.660156 C 8.734375 -9.179688 7.277344 -10.414062 4.925781 -10.414062 L 0.714844 -10.414062 Z M 3.722656 -5.039062 L 3.722656 -7.964844 L 4.578125 -7.964844 C 5.332031 -7.964844 5.722656 -7.597656 5.722656 -6.589844 L 5.722656 -6.464844 C 5.722656 -5.332031 5.261719 -5.039062 4.546875 -5.039062 Z M 3.722656 -5.039062 "/></g></g></g><g fill="#000000" fill-opacity="1"><g transform="translate(193.700803, 272.9563)"><g><path d="M 0.714844 0 L 3.722656 0 L 3.722656 -2.601562 L 5.164062 -2.601562 C 7.332031 -2.601562 8.734375 -3.847656 8.734375 -6.480469 L 8.734375 -6.660156 C 8.734375 -9.179688 7.277344 -10.414062 4.925781 -10.414062 L 0.714844 -10.414062 Z M 3.722656 -5.039062 L 3.722656 -7.964844 L 4.578125 -7.964844 C 5.332031 -7.964844 5.722656 -7.597656 5.722656 -6.589844 L 5.722656 -6.464844 C 5.722656 -5.332031 5.261719 -5.039062 4.546875 -5.039062 Z M 3.722656 -5.039062 "/></g></g></g></svg>