<svg xmlns="http://www.w3.org/2000/svg" xmlns:xlink="http://www.w3.org/1999/xlink" width="500" zoomAndPan="magnify" viewBox="0 0 375 374.999991" height="500" preserveAspectRatio="xMidYMid meet" version="1.0"><defs><g/><clipPath id="7e7e061866"><path d="M 139.03125 112.5625 L 235.78125 112.5625 L 235.78125 171 L 139.03125 171 Z M 139.03125 112.5625 " clip-rule="nonzero"/></clipPath><clipPath id="cc97acef1a"><path d="M 152 176 L 166 176 L 166 189.8125 L 152 189.8125 Z M 152 176 " clip-rule="nonzero"/></clipPath><clipPath id="3deccf7cd3"><path d="M 171 176 L 185 176 L 185 189.8125 L 171 189.8125 Z M 171 176 " clip-rule="nonzero"/></clipPath><clipPath id="41a45db184"><path d="M 190 176 L 204 176 L 204 189.8125 L 190 189.8125 Z M 190 176 " clip-rule="nonzero"/></clipPath><clipPath id="4911cba0f1"><path d="M 209 176 L 223 176 L 223 189.8125 L 209 189.8125 Z M 209 176 " clip-rule="nonzero"/></clipPath></defs><rect x="-37.5" width="450" fill="#ffffff" y="-37.499999" height="449.999989" fill-opacity="1"/><rect x="-37.5" width="450" fill="#26324b" y="-37.499999" height="449.999989" fill-opacity="1"/><g clip-path="url(#7e7e061866)"><path fill="#1fc7e3" d="M 224.101562 134.699219 C 223.4375 124.523438 214.21875 116.699219 202.78125 116.699219 C 198.007812 116.699219 193.34375 118.152344 189.570312 120.835938 C 185.574219 115.582031 179.132812 112.5625 172.027344 112.5625 C 160.257812 112.5625 150.707031 121.171875 150.707031 131.792969 C 150.707031 132.796875 150.816406 133.691406 150.929688 134.699219 C 148.820312 135.59375 146.933594 136.820312 145.265625 138.273438 C 141.378906 141.742188 139.160156 146.4375 139.160156 151.46875 C 139.160156 161.753906 148.484375 170.25 160.035156 170.25 L 214.773438 170.25 C 220.328125 170.25 225.546875 168.347656 229.433594 164.769531 C 233.429688 161.191406 235.539062 156.496094 235.539062 151.46875 C 235.648438 144.3125 231.097656 137.828125 224.101562 134.699219 Z M 227.988281 163.09375 C 224.433594 166.222656 219.773438 168.011719 214.773438 168.011719 L 160.035156 168.011719 C 149.707031 168.011719 141.378906 160.632812 141.378906 151.46875 C 141.378906 147.105469 143.265625 142.96875 146.820312 139.839844 C 148.484375 138.386719 150.484375 137.15625 152.59375 136.375 L 153.484375 136.039062 L 153.261719 135.03125 C 153.039062 134.027344 152.925781 132.910156 152.925781 131.792969 C 152.925781 122.398438 161.476562 114.796875 172.027344 114.796875 C 178.6875 114.796875 184.90625 117.929688 188.460938 122.960938 C 190.234375 125.640625 191.234375 128.660156 191.234375 131.679688 C 191.234375 132.351562 191.234375 133.019531 191.125 133.691406 C 190.902344 134.25 191.347656 134.921875 192.011719 134.921875 C 192.679688 135.03125 193.234375 134.585938 193.234375 134.027344 C 193.34375 133.246094 193.34375 132.574219 193.34375 131.792969 C 193.34375 128.550781 192.457031 125.417969 190.792969 122.734375 C 194.121094 120.386719 198.339844 119.046875 202.78125 119.046875 C 213.109375 119.046875 221.660156 126.425781 221.882812 135.59375 L 221.882812 136.375 L 222.546875 136.597656 C 229.097656 139.28125 233.429688 145.207031 233.429688 151.578125 C 233.429688 155.828125 231.542969 159.964844 227.988281 163.09375 Z M 227.988281 163.09375 " fill-opacity="1" fill-rule="nonzero"/></g><g clip-path="url(#cc97acef1a)"><path fill="#1fc7e3" d="M 163.253906 176.957031 L 152.816406 188.023438 C 152.371094 188.472656 152.371094 189.140625 152.816406 189.589844 C 153.039062 189.8125 153.261719 189.925781 153.59375 189.925781 C 153.925781 189.925781 154.148438 189.8125 154.371094 189.589844 L 164.808594 178.519531 C 165.253906 178.074219 165.253906 177.402344 164.808594 176.957031 C 164.363281 176.507812 163.699219 176.507812 163.253906 176.957031 Z M 163.253906 176.957031 " fill-opacity="1" fill-rule="nonzero"/></g><g clip-path="url(#3deccf7cd3)"><path fill="#1fc7e3" d="M 173.46875 189.476562 L 183.90625 178.410156 C 184.351562 177.960938 184.351562 177.292969 183.90625 176.84375 C 183.460938 176.398438 182.796875 176.398438 182.351562 176.84375 L 171.914062 187.910156 C 171.472656 188.359375 171.472656 189.03125 171.914062 189.476562 C 172.136719 189.699219 172.359375 189.8125 172.691406 189.8125 C 172.914062 189.8125 173.246094 189.699219 173.46875 189.476562 Z M 173.46875 189.476562 " fill-opacity="1" fill-rule="nonzero"/></g><g clip-path="url(#41a45db184)"><path fill="#1fc7e3" d="M 192.457031 189.476562 L 202.894531 178.410156 C 203.339844 177.960938 203.339844 177.292969 202.894531 176.84375 C 202.449219 176.398438 201.785156 176.398438 201.339844 176.84375 L 190.902344 187.910156 C 190.457031 188.359375 190.457031 189.03125 190.902344 189.476562 C 191.125 189.699219 191.347656 189.8125 191.679688 189.8125 C 192.011719 189.8125 192.34375 189.699219 192.457031 189.476562 Z M 192.457031 189.476562 " fill-opacity="1" fill-rule="nonzero"/></g><g clip-path="url(#4911cba0f1)"><path fill="#1fc7e3" d="M 221.992188 176.957031 C 221.546875 176.507812 220.882812 176.507812 220.4375 176.957031 L 210 188.023438 C 209.554688 188.472656 209.554688 189.140625 210 189.589844 C 210.222656 189.8125 210.445312 189.925781 210.777344 189.925781 C 211.109375 189.925781 211.332031 189.8125 211.554688 189.589844 L 221.992188 178.519531 C 222.4375 178.074219 222.4375 177.292969 221.992188 176.957031 Z M 221.992188 176.957031 " fill-opacity="1" fill-rule="nonzero"/></g><g fill="#1fc7e3" fill-opacity="1"><g transform="translate(88.834631, 229.939204)"><g><path d="M 13.648438 -20.4375 L 13.648438 -19.28125 L 14.277344 -19.28125 C 15.011719 -19.28125 15.710938 -18.863281 15.992188 -18.164062 L 16.585938 -16.621094 L 12.214844 -5.074219 L 7 -18.652344 C 6.859375 -19.003906 7.175781 -19.28125 7.453125 -19.28125 L 8.363281 -19.28125 L 8.363281 -20.4375 L 0.28125 -20.4375 L 0.28125 -19.28125 L 0.910156 -19.28125 C 1.644531 -19.28125 2.34375 -18.863281 2.625 -18.164062 L 9.972656 0.421875 L 11.09375 0.421875 L 17.21875 -15.117188 L 23.339844 0.421875 L 24.460938 0.421875 L 31.777344 -18.164062 C 32.054688 -18.863281 32.71875 -19.28125 33.457031 -19.28125 L 34.121094 -19.28125 L 34.121094 -20.4375 L 29.429688 -20.4375 L 29.429688 -19.28125 L 30.304688 -19.28125 C 30.585938 -19.28125 30.902344 -19.003906 30.761719 -18.652344 L 25.582031 -5.074219 L 20.367188 -18.652344 C 20.226562 -19.003906 20.542969 -19.28125 20.820312 -19.28125 L 21.730469 -19.28125 L 21.730469 -20.4375 Z M 13.648438 -20.4375 "/></g></g></g><g fill="#1fc7e3" fill-opacity="1"><g transform="translate(130.721772, 229.939204)"><g><path d="M 11.828125 -10.777344 L 6.824219 -10.777344 L 6.824219 -19.28125 L 14.136719 -19.28125 C 15.117188 -19.28125 15.957031 -18.511719 16.027344 -17.566406 L 16.027344 -16.867188 L 17.148438 -16.867188 L 17.148438 -20.402344 L 1.121094 -20.402344 L 1.121094 -19.28125 L 1.644531 -19.28125 C 2.167969 -19.28125 2.589844 -18.863281 2.589844 -18.335938 L 2.589844 -2.066406 C 2.589844 -1.539062 2.167969 -1.15625 1.644531 -1.15625 L 1.121094 -1.15625 L 1.121094 0 L 17.148438 0 L 17.148438 -3.535156 L 16.027344 -3.535156 L 16.027344 -2.800781 C 15.957031 -1.855469 15.117188 -1.15625 14.136719 -1.15625 L 6.824219 -1.15625 L 6.824219 -9.660156 L 11.828125 -9.660156 C 12.5625 -9.660156 13.125 -9.0625 13.125 -8.328125 L 13.125 -7.804688 L 14.277344 -7.804688 L 14.277344 -12.597656 L 13.125 -12.597656 L 13.125 -12.074219 C 13.125 -11.339844 12.5625 -10.777344 11.828125 -10.777344 Z M 11.828125 -10.777344 "/></g></g></g><g fill="#1fc7e3" fill-opacity="1"><g transform="translate(155.882688, 229.939204)"><g><path d="M 9.972656 -20.855469 L 2.625 -2.273438 C 2.34375 -1.574219 1.644531 -1.15625 0.910156 -1.15625 L 0.28125 -1.15625 L 0.28125 0 L 5.003906 0 L 5.003906 -1.15625 L 4.058594 -1.15625 C 3.78125 -1.15625 3.5 -1.433594 3.640625 -1.785156 L 5.320312 -6.160156 L 12.351562 -6.160156 L 13.996094 -1.785156 C 14.136719 -1.433594 13.859375 -1.15625 13.578125 -1.15625 L 12.703125 -1.15625 L 12.703125 0 L 20.785156 0 L 20.785156 -1.15625 L 20.121094 -1.15625 C 19.386719 -1.15625 18.6875 -1.574219 18.40625 -2.273438 L 11.09375 -20.855469 Z M 5.738281 -7.277344 L 8.855469 -15.363281 L 11.933594 -7.277344 Z M 5.738281 -7.277344 "/></g></g></g><g fill="#1fc7e3" fill-opacity="1"><g transform="translate(184.472825, 229.939204)"><g><path d="M 0.488281 -20.4375 L 0.488281 -16.902344 L 1.609375 -16.902344 L 1.644531 -17.566406 C 1.714844 -18.511719 2.554688 -19.28125 3.5 -19.28125 L 7.242188 -19.28125 L 7.242188 -2.066406 C 7.242188 -1.539062 6.824219 -1.15625 6.300781 -1.15625 L 5.773438 -1.15625 L 5.773438 0 L 12.949219 0 L 12.949219 -1.15625 L 12.421875 -1.15625 C 11.898438 -1.15625 11.476562 -1.539062 11.476562 -2.066406 L 11.476562 -19.28125 L 15.257812 -19.28125 C 16.203125 -19.28125 17.042969 -18.511719 17.113281 -17.566406 L 17.148438 -16.902344 L 18.265625 -16.902344 L 18.265625 -20.367188 Z M 0.488281 -20.4375 "/></g></g></g><g fill="#1fc7e3" fill-opacity="1"><g transform="translate(210.718492, 229.939204)"><g><path d="M 14.699219 -20.4375 L 14.699219 -19.28125 L 15.1875 -19.28125 C 15.710938 -19.28125 16.132812 -18.863281 16.132812 -18.335938 L 16.132812 -10.777344 L 6.824219 -10.777344 L 6.824219 -18.335938 C 6.824219 -18.863281 7.242188 -19.28125 7.769531 -19.28125 L 8.257812 -19.28125 L 8.257812 -20.402344 L 1.121094 -20.4375 L 1.121094 -19.28125 L 1.644531 -19.28125 C 2.167969 -19.28125 2.589844 -18.96875 2.589844 -18.335938 L 2.589844 -2.066406 C 2.589844 -1.539062 2.167969 -1.15625 1.644531 -1.15625 L 1.121094 -1.15625 L 1.121094 0 L 8.257812 0 L 8.257812 -1.15625 L 7.769531 -1.15625 C 7.242188 -1.15625 6.824219 -1.539062 6.824219 -2.066406 L 6.824219 -9.660156 L 16.132812 -9.660156 L 16.132812 -2.066406 C 16.132812 -1.539062 15.710938 -1.15625 15.1875 -1.15625 L 14.699219 -1.15625 L 14.699219 0 L 21.835938 0 L 21.835938 -1.15625 L 21.347656 -1.15625 C 20.820312 -1.15625 20.367188 -1.539062 20.367188 -2.066406 L 20.367188 -18.335938 C 20.367188 -18.863281 20.820312 -19.28125 21.347656 -19.28125 L 21.835938 -19.28125 L 21.835938 -20.402344 Z M 14.699219 -20.4375 "/></g></g></g><g fill="#1fc7e3" fill-opacity="1"><g transform="translate(241.233212, 229.939204)"><g><path d="M 11.828125 -10.777344 L 6.824219 -10.777344 L 6.824219 -19.28125 L 14.136719 -19.28125 C 15.117188 -19.28125 15.957031 -18.511719 16.027344 -17.566406 L 16.027344 -16.867188 L 17.148438 -16.867188 L 17.148438 -20.402344 L 1.121094 -20.402344 L 1.121094 -19.28125 L 1.644531 -19.28125 C 2.167969 -19.28125 2.589844 -18.863281 2.589844 -18.335938 L 2.589844 -2.066406 C 2.589844 -1.539062 2.167969 -1.15625 1.644531 -1.15625 L 1.121094 -1.15625 L 1.121094 0 L 17.148438 0 L 17.148438 -3.535156 L 16.027344 -3.535156 L 16.027344 -2.800781 C 15.957031 -1.855469 15.117188 -1.15625 14.136719 -1.15625 L 6.824219 -1.15625 L 6.824219 -9.660156 L 11.828125 -9.660156 C 12.5625 -9.660156 13.125 -9.0625 13.125 -8.328125 L 13.125 -7.804688 L 14.277344 -7.804688 L 14.277344 -12.597656 L 13.125 -12.597656 L 13.125 -12.074219 C 13.125 -11.339844 12.5625 -10.777344 11.828125 -10.777344 Z M 11.828125 -10.777344 "/></g></g></g><g fill="#1fc7e3" fill-opacity="1"><g transform="translate(266.394122, 229.939204)"><g><path d="M 8.257812 0 L 8.257812 -1.15625 L 7.769531 -1.15625 C 7.242188 -1.15625 6.824219 -1.539062 6.824219 -2.066406 L 6.824219 -9.0625 L 8.957031 -9.0625 L 12.949219 -1.328125 C 13.332031 -0.488281 14.136719 0 15.046875 0 L 19.527344 0 L 19.527344 -1.121094 L 19.105469 -1.121094 C 18.230469 -1.121094 17.425781 -1.644531 17.078125 -2.414062 L 13.472656 -9.449219 C 15.679688 -10.183594 17.148438 -12.039062 17.148438 -14.734375 C 17.148438 -18.300781 14.523438 -20.402344 11.128906 -20.402344 L 1.121094 -20.402344 L 1.121094 -19.28125 L 1.644531 -19.28125 C 2.167969 -19.28125 2.589844 -18.863281 2.589844 -18.335938 L 2.589844 -2.101562 C 2.589844 -1.574219 2.167969 -1.15625 1.644531 -1.15625 L 1.121094 -1.15625 L 1.121094 0 Z M 6.824219 -10.183594 L 6.824219 -19.28125 L 9.378906 -19.28125 C 11.546875 -19.28125 12.949219 -17.289062 12.949219 -14.769531 C 12.949219 -12.074219 11.476562 -10.183594 9.378906 -10.183594 Z M 6.824219 -10.183594 "/></g></g></g><g fill="#1fc7e3" fill-opacity="1"><g transform="translate(173.449216, 255.689266)"><g><path d="M 4.15625 -8.941406 L 1.066406 -0.871094 C 0.960938 -0.613281 0.691406 -0.449219 0.421875 -0.449219 L 0.121094 -0.449219 L 0.121094 0 L 2.070312 0 L 2.070312 -0.449219 L 1.636719 -0.449219 C 1.515625 -0.449219 1.410156 -0.554688 1.46875 -0.691406 L 2.21875 -2.699219 L 5.371094 -2.699219 L 6.105469 -0.691406 C 6.164062 -0.554688 6.058594 -0.449219 5.941406 -0.449219 L 5.535156 -0.449219 L 5.535156 0 L 8.625 0 L 8.625 -0.449219 L 8.308594 -0.449219 C 8.039062 -0.449219 7.785156 -0.613281 7.679688 -0.871094 L 4.589844 -8.941406 Z M 2.371094 -3.121094 L 3.796875 -6.976562 L 5.203125 -3.121094 Z M 2.371094 -3.121094 "/></g></g></g><g fill="#1fc7e3" fill-opacity="1"><g transform="translate(183.694206, 255.689266)"><g><path d="M 3.300781 0 L 3.300781 -0.449219 L 3.058594 -0.449219 C 2.851562 -0.449219 2.699219 -0.601562 2.699219 -0.808594 L 2.699219 -3.316406 L 5.25 -3.316406 C 6.691406 -3.316406 7.816406 -4.320312 7.816406 -6.03125 C 7.816406 -7.738281 6.691406 -8.746094 5.25 -8.746094 L 0.570312 -8.746094 L 0.570312 -8.308594 L 0.808594 -8.308594 C 1.019531 -8.308594 1.183594 -8.144531 1.183594 -7.933594 L 1.183594 -0.808594 C 1.183594 -0.601562 1.019531 -0.449219 0.808594 -0.449219 L 0.570312 -0.449219 L 0.570312 0 Z M 2.699219 -3.75 L 2.699219 -8.308594 L 4.46875 -8.308594 C 5.59375 -8.308594 6.300781 -7.335938 6.300781 -6.03125 C 6.300781 -4.679688 5.566406 -3.75 4.46875 -3.75 Z M 2.699219 -3.75 "/></g></g></g><g fill="#1fc7e3" fill-opacity="1"><g transform="translate(193.369201, 255.689266)"><g><path d="M 3.300781 0 L 3.300781 -0.449219 L 3.058594 -0.449219 C 2.851562 -0.449219 2.699219 -0.601562 2.699219 -0.808594 L 2.699219 -3.316406 L 5.25 -3.316406 C 6.691406 -3.316406 7.816406 -4.320312 7.816406 -6.03125 C 7.816406 -7.738281 6.691406 -8.746094 5.25 -8.746094 L 0.570312 -8.746094 L 0.570312 -8.308594 L 0.808594 -8.308594 C 1.019531 -8.308594 1.183594 -8.144531 1.183594 -7.933594 L 1.183594 -0.808594 C 1.183594 -0.601562 1.019531 -0.449219 0.808594 -0.449219 L 0.570312 -0.449219 L 0.570312 0 Z M 2.699219 -3.75 L 2.699219 -8.308594 L 4.46875 -8.308594 C 5.59375 -8.308594 6.300781 -7.335938 6.300781 -6.03125 C 6.300781 -4.679688 5.566406 -3.75 4.46875 -3.75 Z M 2.699219 -3.75 "/></g></g></g></svg>