<svg xmlns="http://www.w3.org/2000/svg" xmlns:xlink="http://www.w3.org/1999/xlink" width="500" zoomAndPan="magnify" viewBox="0 0 375 374.999991" height="500" preserveAspectRatio="xMidYMid meet" version="1.0"><defs><g/><clipPath id="074732bb15"><path d="M 26.5 139 L 174 139 L 174 243 L 26.5 243 Z M 26.5 139 " clip-rule="nonzero"/></clipPath><clipPath id="23069c8796"><path d="M 51 105.261719 L 174 105.261719 L 174 243 L 51 243 Z M 51 105.261719 " clip-rule="nonzero"/></clipPath></defs><rect x="-37.5" width="450" fill="#ffffff" y="-37.499999" height="449.999989" fill-opacity="1"/><rect x="-37.5" width="450" fill="#2f3449" y="-37.499999" height="449.999989" fill-opacity="1"/><g clip-path="url(#074732bb15)"><path fill="#d89b64" d="M 173.125 239.851562 C 173.125 239.851562 160.328125 232.90625 137.882812 231.808594 C 127.996094 231.324219 116.222656 231.976562 102.839844 234.871094 C 102.839844 234.871094 30.707031 144.523438 30.707031 144.523438 C 32.527344 144.113281 35.507812 143.507812 39.390625 142.96875 C 42.507812 142.535156 46.199219 142.144531 50.335938 141.921875 C 51.09375 141.878906 51.679688 141.234375 51.636719 140.476562 C 51.59375 139.71875 50.945312 139.140625 50.1875 139.179688 C 45.960938 139.410156 42.191406 139.808594 39.011719 140.25 C 32.070312 141.21875 27.921875 142.378906 27.921875 142.378906 C 27.476562 142.503906 27.125 142.84375 26.984375 143.277344 C 26.84375 143.714844 26.929688 144.195312 27.214844 144.554688 L 101.21875 237.246094 C 101.546875 237.65625 102.082031 237.84375 102.597656 237.730469 C 116.046875 234.742188 127.859375 234.0625 137.75 234.546875 C 159.4375 235.609375 171.816406 242.261719 171.816406 242.261719 C 172.484375 242.621094 173.320312 242.375 173.679688 241.707031 C 174.042969 241.042969 173.792969 240.210938 173.125 239.851562 Z M 173.125 239.851562 " fill-opacity="1" fill-rule="evenodd"/></g><g clip-path="url(#23069c8796)"><path fill="#e5d3b3" d="M 173.785156 240.25 C 173.785156 240.25 165.867188 226.964844 146.050781 218.550781 C 137.273438 214.828125 126.152344 212.050781 112.328125 211.835938 C 112.328125 211.835938 63.453125 123.109375 55.398438 108.484375 C 60.546875 108.5625 73.78125 109.214844 88.675781 113.476562 C 99.277344 116.511719 110.730469 121.382812 120.6875 129.203125 C 121.285156 129.671875 122.148438 129.566406 122.621094 128.976562 C 123.089844 128.378906 122.984375 127.519531 122.390625 127.046875 C 112.140625 118.996094 100.355469 113.964844 89.433594 110.84375 C 69.832031 105.230469 53.035156 105.746094 53.035156 105.746094 C 52.554688 105.761719 52.121094 106.023438 51.882812 106.4375 C 51.644531 106.851562 51.640625 107.359375 51.871094 107.777344 L 110.304688 213.859375 C 110.542969 214.292969 111 214.5625 111.496094 214.570312 C 125.257812 214.683594 136.300781 217.394531 144.972656 221.074219 C 163.835938 229.085938 171.421875 241.65625 171.421875 241.65625 C 171.8125 242.308594 172.660156 242.519531 173.308594 242.132812 C 173.960938 241.742188 174.175781 240.898438 173.785156 240.25 Z M 173.785156 240.25 " fill-opacity="1" fill-rule="evenodd"/></g><path fill="#e5d3b3" d="M 173.460938 240.058594 C 173.460938 240.058594 163.28125 231.304688 141.621094 227.140625 C 132.554688 225.398438 121.464844 224.457031 108.25 225.3125 C 108.25 225.3125 43.371094 126.6875 43.371094 126.6875 C 45.246094 126.554688 48.226562 126.40625 52.046875 126.449219 C 55.191406 126.480469 58.902344 126.640625 63.027344 127.035156 C 63.78125 127.105469 64.457031 126.554688 64.527344 125.796875 C 64.597656 125.042969 64.042969 124.375 63.289062 124.304688 C 59.074219 123.902344 55.289062 123.738281 52.078125 123.707031 C 45.070312 123.632812 40.792969 124.167969 40.792969 124.167969 C 40.320312 124.222656 39.910156 124.523438 39.710938 124.953125 C 39.515625 125.382812 39.550781 125.882812 39.8125 126.277344 L 106.390625 227.488281 C 106.660156 227.902344 107.140625 228.136719 107.632812 228.105469 C 120.921875 227.171875 132.042969 228.09375 141.097656 229.832031 C 161.875 233.828125 171.671875 242.136719 171.671875 242.136719 C 172.25 242.628906 173.117188 242.5625 173.613281 241.988281 C 174.105469 241.414062 174.039062 240.550781 173.460938 240.058594 Z M 173.460938 240.058594 " fill-opacity="1" fill-rule="evenodd"/><g fill="#ffffff" fill-opacity="1"><g transform="translate(103.955278, 175.426688)"><g><path d="M 28.296875 -24.859375 C 28.296875 -21.890625 27.164062 -19.539062 24.90625 -17.8125 C 22.863281 -16.289062 20.300781 -15.53125 17.21875 -15.53125 L 11.8125 -15.53125 L 11.8125 -1.265625 L 16.484375 -1.265625 L 16.484375 0 L 1.328125 0 L 1.328125 -1.265625 L 6.046875 -1.265625 L 6.046875 -32.90625 L 1.328125 -32.90625 L 1.328125 -34.1875 L 16.6875 -34.1875 C 19.90625 -34.1875 22.578125 -33.441406 24.703125 -31.953125 C 27.097656 -30.296875 28.296875 -27.929688 28.296875 -24.859375 Z M 22.953125 -25.765625 C 22.953125 -30.523438 20.863281 -32.90625 16.6875 -32.90625 L 11.8125 -32.90625 L 11.8125 -16.796875 L 17.21875 -16.796875 C 21.039062 -16.796875 22.953125 -19.179688 22.953125 -23.953125 Z M 22.953125 -25.765625 "/></g></g></g><g fill="#ffffff" fill-opacity="1"><g transform="translate(130.874935, 175.426688)"><g><path d="M 24.015625 -2.859375 C 24.015625 -1.765625 23.359375 -0.882812 22.046875 -0.21875 C 20.921875 0.382812 19.804688 0.6875 18.703125 0.6875 C 16.410156 0.6875 15.015625 -0.140625 14.515625 -1.796875 C 12.960938 -0.140625 10.914062 0.6875 8.375 0.6875 C 4.269531 0.6875 2.21875 -0.863281 2.21875 -3.96875 C 2.21875 -6.550781 3.671875 -8.476562 6.578125 -9.75 C 8.765625 -10.707031 11.304688 -11.203125 14.203125 -11.234375 L 14.203125 -16.90625 C 14.203125 -18.675781 13.070312 -19.5625 10.8125 -19.5625 C 8.65625 -19.5625 7.578125 -19.257812 7.578125 -18.65625 C 7.609375 -18.625 7.660156 -18.570312 7.734375 -18.5 C 7.804688 -18.425781 7.914062 -18.335938 8.0625 -18.234375 C 8.550781 -17.734375 8.796875 -17.203125 8.796875 -16.640625 C 8.796875 -15.335938 8.035156 -14.6875 6.515625 -14.6875 C 5.035156 -14.6875 4.296875 -15.375 4.296875 -16.75 C 4.296875 -18.195312 5.300781 -19.273438 7.3125 -19.984375 C 8.582031 -20.441406 10.171875 -20.671875 12.078125 -20.671875 C 16.953125 -20.671875 19.390625 -19.097656 19.390625 -15.953125 L 19.390625 -3.921875 C 19.390625 -2.015625 19.816406 -1.0625 20.671875 -1.0625 C 21.617188 -1.0625 22.394531 -1.644531 23 -2.8125 C 23.144531 -3.164062 23.335938 -3.34375 23.578125 -3.34375 C 23.867188 -3.34375 24.015625 -3.179688 24.015625 -2.859375 Z M 14.203125 -10.28125 C 13.078125 -10.207031 12.101562 -10.082031 11.28125 -9.90625 C 10.46875 -9.726562 9.816406 -9.519531 9.328125 -9.28125 C 7.773438 -8.46875 7 -7.125 7 -5.25 C 7 -2.457031 8.078125 -1.0625 10.234375 -1.0625 C 10.867188 -1.0625 11.679688 -1.34375 12.671875 -1.90625 C 13.691406 -2.507812 14.203125 -3.078125 14.203125 -3.609375 Z M 14.203125 -10.28125 "/></g></g></g><g fill="#ffffff" fill-opacity="1"><g transform="translate(152.389389, 175.426688)"><g><path d="M 22.953125 -19.65625 C 22.953125 -18.53125 22.332031 -17.96875 21.09375 -17.96875 C 19.75 -17.96875 19.078125 -18.515625 19.078125 -19.609375 C 19.078125 -19.785156 19.097656 -19.910156 19.140625 -19.984375 C 18.890625 -19.835938 18.628906 -19.648438 18.359375 -19.421875 C 18.097656 -19.191406 17.828125 -18.9375 17.546875 -18.65625 C 19.171875 -17.238281 19.984375 -15.523438 19.984375 -13.515625 C 19.984375 -11.785156 19.328125 -10.265625 18.015625 -8.953125 C 16.316406 -7.191406 13.96875 -6.3125 10.96875 -6.3125 C 9.625 -6.3125 8.582031 -6.429688 7.84375 -6.671875 C 5.019531 -5.972656 3.609375 -4.914062 3.609375 -3.5 C 3.609375 -2.226562 4.6875 -1.59375 6.84375 -1.59375 L 15.640625 -1.59375 C 20.191406 -1.59375 22.46875 0.523438 22.46875 4.765625 C 22.46875 7.628906 21.335938 9.820312 19.078125 11.34375 C 17.066406 12.71875 14.59375 13.40625 11.65625 13.40625 C 4.976562 13.40625 1.640625 11.476562 1.640625 7.625 C 1.640625 5.1875 3.019531 3.40625 5.78125 2.28125 C 3.09375 1.601562 1.75 -0.0195312 1.75 -2.59375 C 1.75 -4.851562 3.179688 -6.441406 6.046875 -7.359375 C 3.328125 -8.816406 1.96875 -10.867188 1.96875 -13.515625 C 1.96875 -15.421875 2.742188 -17.0625 4.296875 -18.4375 C 5.992188 -19.925781 8.21875 -20.671875 10.96875 -20.671875 C 13.445312 -20.671875 15.300781 -20.242188 16.53125 -19.390625 C 17.914062 -20.773438 19.296875 -21.46875 20.671875 -21.46875 C 22.191406 -21.46875 22.953125 -20.863281 22.953125 -19.65625 Z M 14.578125 -14.3125 C 14.578125 -15.863281 14.378906 -17.0625 13.984375 -17.90625 C 13.460938 -18.894531 12.457031 -19.390625 10.96875 -19.390625 C 9.488281 -19.390625 8.484375 -18.894531 7.953125 -17.90625 C 7.554688 -17.0625 7.359375 -15.863281 7.359375 -14.3125 L 7.359375 -12.609375 C 7.359375 -11.128906 7.554688 -9.960938 7.953125 -9.109375 C 8.546875 -8.085938 9.550781 -7.578125 10.96875 -7.578125 C 12.382812 -7.578125 13.390625 -8.085938 13.984375 -9.109375 C 14.378906 -9.960938 14.578125 -11.128906 14.578125 -12.609375 Z M 19.984375 6.84375 C 19.984375 5.5 19.460938 4.4375 18.421875 3.65625 C 17.378906 2.875 16.148438 2.484375 14.734375 2.484375 L 7.796875 2.484375 C 6.984375 2.484375 6.257812 2.960938 5.625 3.921875 C 5.019531 4.941406 4.71875 5.859375 4.71875 6.671875 C 4.71875 10.316406 7.101562 12.140625 11.875 12.140625 C 13.851562 12.140625 15.601562 11.75 17.125 10.96875 C 19.03125 10.019531 19.984375 8.644531 19.984375 6.84375 Z M 19.984375 6.84375 "/></g></g></g><g fill="#ffffff" fill-opacity="1"><g transform="translate(173.002972, 175.426688)"><g><path d="M 21.9375 -6.203125 C 21.9375 -5.921875 21.882812 -5.65625 21.78125 -5.40625 C 20.15625 -1.34375 16.957031 0.6875 12.1875 0.6875 C 9.1875 0.6875 6.660156 -0.335938 4.609375 -2.390625 C 2.523438 -4.472656 1.484375 -6.945312 1.484375 -9.8125 C 1.484375 -12.632812 2.523438 -15.140625 4.609375 -17.328125 C 6.734375 -19.554688 9.191406 -20.671875 11.984375 -20.671875 C 15.085938 -20.671875 17.578125 -19.554688 19.453125 -17.328125 C 20.828125 -15.671875 21.566406 -14.007812 21.671875 -12.34375 C 21.742188 -11.75 21.375 -11.453125 20.5625 -11.453125 L 7.6875 -11.453125 L 7.6875 -6.578125 C 7.6875 -2.546875 9.222656 -0.53125 12.296875 -0.53125 C 16.148438 -0.53125 18.941406 -2.398438 20.671875 -6.140625 C 20.878906 -6.566406 21.125 -6.78125 21.40625 -6.78125 C 21.757812 -6.78125 21.9375 -6.585938 21.9375 -6.203125 Z M 16.0625 -14.78125 C 16.0625 -17.851562 14.71875 -19.390625 12.03125 -19.390625 C 9.132812 -19.390625 7.6875 -17.75 7.6875 -14.46875 L 7.6875 -12.71875 L 15.53125 -12.71875 C 15.882812 -12.71875 16.0625 -13.40625 16.0625 -14.78125 Z M 16.0625 -14.78125 "/></g></g></g><g fill="#ffffff" fill-opacity="1"><g transform="translate(194.04049, 175.426688)"><g/></g></g><g fill="#ffffff" fill-opacity="1"><g transform="translate(207.288152, 175.426688)"><g><path d="M 31.0625 -24.109375 C 30.707031 -26.335938 30.070312 -28.226562 29.15625 -29.78125 C 27.875 -31.863281 26.28125 -32.90625 24.375 -32.90625 L 19.921875 -32.90625 L 19.921875 -1.265625 L 24.640625 -1.265625 L 24.640625 0 L 9.484375 0 L 9.484375 -1.265625 L 14.15625 -1.265625 L 14.15625 -32.90625 L 9.703125 -32.90625 C 7.796875 -32.90625 6.203125 -31.863281 4.921875 -29.78125 C 4.003906 -28.226562 3.367188 -26.335938 3.015625 -24.109375 L 1.4375 -24.109375 L 2.28125 -33.125 C 2.351562 -33.832031 2.796875 -34.1875 3.609375 -34.1875 L 30.53125 -34.1875 C 31.34375 -34.1875 31.785156 -33.832031 31.859375 -33.125 L 32.703125 -24.109375 Z M 31.0625 -24.109375 "/></g></g></g><g fill="#ffffff" fill-opacity="1"><g transform="translate(238.447196, 175.426688)"><g><path d="M 19.03125 -3.1875 C 17.15625 -0.675781 14.414062 0.578125 10.8125 0.578125 C 6.957031 0.578125 5.03125 -1.289062 5.03125 -5.03125 L 5.03125 -18.703125 L 1.21875 -18.703125 L 1.21875 -19.921875 L 10.234375 -19.921875 L 10.234375 -4.71875 C 10.234375 -3.550781 10.375 -2.71875 10.65625 -2.21875 C 11.039062 -1.625 11.816406 -1.328125 12.984375 -1.328125 C 14.328125 -1.328125 15.648438 -1.875 16.953125 -2.96875 C 18.335938 -4.0625 19.03125 -5.242188 19.03125 -6.515625 L 19.03125 -18.703125 L 15.21875 -18.703125 L 15.21875 -19.921875 L 24.21875 -19.921875 L 24.21875 -1.265625 L 28.03125 -1.265625 L 28.03125 0 L 19.03125 0 Z M 19.03125 -3.1875 "/></g></g></g><g fill="#ffffff" fill-opacity="1"><g transform="translate(265.260874, 175.426688)"><g><path d="M 21.3125 -16.59375 C 21.3125 -15.738281 21.023438 -15.0625 20.453125 -14.5625 C 19.890625 -14.070312 19.1875 -13.828125 18.34375 -13.828125 C 17.488281 -13.828125 16.769531 -14.054688 16.1875 -14.515625 C 15.601562 -14.984375 15.3125 -15.625 15.3125 -16.4375 C 15.3125 -17.53125 15.753906 -18.304688 16.640625 -18.765625 C 16.742188 -18.796875 16.796875 -18.847656 16.796875 -18.921875 C 16.796875 -19.066406 16.375 -19.140625 15.53125 -19.140625 C 14.363281 -19.140625 13.144531 -18.660156 11.875 -17.703125 C 10.601562 -16.785156 9.96875 -15.757812 9.96875 -14.625 L 9.96875 -1.265625 L 13.78125 -1.265625 L 13.78125 0 L 0.953125 0 L 0.953125 -1.265625 L 4.765625 -1.265625 L 4.765625 -18.703125 L 0.953125 -18.703125 L 0.953125 -19.984375 L 9.96875 -19.984375 L 9.96875 -17.59375 C 11.519531 -19.46875 13.566406 -20.40625 16.109375 -20.40625 C 17.554688 -20.40625 18.722656 -20.125 19.609375 -19.5625 C 20.742188 -18.851562 21.3125 -17.863281 21.3125 -16.59375 Z M 21.3125 -16.59375 "/></g></g></g><g fill="#ffffff" fill-opacity="1"><g transform="translate(284.443676, 175.426688)"><g><path d="M 15.15625 -1.265625 L 18.96875 -1.265625 L 18.96875 -15.21875 C 18.96875 -17.539062 18.035156 -18.703125 16.171875 -18.703125 C 14.929688 -18.703125 13.710938 -18.117188 12.515625 -16.953125 C 11.304688 -15.796875 10.703125 -14.597656 10.703125 -13.359375 L 10.703125 -1.265625 L 14.515625 -1.265625 L 14.515625 0 L 1.75 0 L 1.75 -1.265625 L 5.5625 -1.265625 L 5.5625 -18.703125 L 1.75 -18.703125 L 1.75 -19.921875 L 10.703125 -19.921875 L 10.703125 -16.75 C 12.398438 -19.15625 14.890625 -20.359375 18.171875 -20.359375 C 22.171875 -20.359375 24.171875 -18.75 24.171875 -15.53125 L 24.171875 -1.265625 L 27.984375 -1.265625 L 27.984375 0 L 15.15625 0 Z M 15.15625 -1.265625 "/></g></g></g><g fill="#ffffff" fill-opacity="1"><g transform="translate(310.780421, 175.426688)"><g><path d="M 21.9375 -6.203125 C 21.9375 -5.921875 21.882812 -5.65625 21.78125 -5.40625 C 20.15625 -1.34375 16.957031 0.6875 12.1875 0.6875 C 9.1875 0.6875 6.660156 -0.335938 4.609375 -2.390625 C 2.523438 -4.472656 1.484375 -6.945312 1.484375 -9.8125 C 1.484375 -12.632812 2.523438 -15.140625 4.609375 -17.328125 C 6.734375 -19.554688 9.191406 -20.671875 11.984375 -20.671875 C 15.085938 -20.671875 17.578125 -19.554688 19.453125 -17.328125 C 20.828125 -15.671875 21.566406 -14.007812 21.671875 -12.34375 C 21.742188 -11.75 21.375 -11.453125 20.5625 -11.453125 L 7.6875 -11.453125 L 7.6875 -6.578125 C 7.6875 -2.546875 9.222656 -0.53125 12.296875 -0.53125 C 16.148438 -0.53125 18.941406 -2.398438 20.671875 -6.140625 C 20.878906 -6.566406 21.125 -6.78125 21.40625 -6.78125 C 21.757812 -6.78125 21.9375 -6.585938 21.9375 -6.203125 Z M 16.0625 -14.78125 C 16.0625 -17.851562 14.71875 -19.390625 12.03125 -19.390625 C 9.132812 -19.390625 7.6875 -17.75 7.6875 -14.46875 L 7.6875 -12.71875 L 15.53125 -12.71875 C 15.882812 -12.71875 16.0625 -13.40625 16.0625 -14.78125 Z M 16.0625 -14.78125 "/></g></g></g><g fill="#ffffff" fill-opacity="1"><g transform="translate(331.817933, 175.426688)"><g><path d="M 21.3125 -16.59375 C 21.3125 -15.738281 21.023438 -15.0625 20.453125 -14.5625 C 19.890625 -14.070312 19.1875 -13.828125 18.34375 -13.828125 C 17.488281 -13.828125 16.769531 -14.054688 16.1875 -14.515625 C 15.601562 -14.984375 15.3125 -15.625 15.3125 -16.4375 C 15.3125 -17.53125 15.753906 -18.304688 16.640625 -18.765625 C 16.742188 -18.796875 16.796875 -18.847656 16.796875 -18.921875 C 16.796875 -19.066406 16.375 -19.140625 15.53125 -19.140625 C 14.363281 -19.140625 13.144531 -18.660156 11.875 -17.703125 C 10.601562 -16.785156 9.96875 -15.757812 9.96875 -14.625 L 9.96875 -1.265625 L 13.78125 -1.265625 L 13.78125 0 L 0.953125 0 L 0.953125 -1.265625 L 4.765625 -1.265625 L 4.765625 -18.703125 L 0.953125 -18.703125 L 0.953125 -19.984375 L 9.96875 -19.984375 L 9.96875 -17.59375 C 11.519531 -19.46875 13.566406 -20.40625 16.109375 -20.40625 C 17.554688 -20.40625 18.722656 -20.125 19.609375 -19.5625 C 20.742188 -18.851562 21.3125 -17.863281 21.3125 -16.59375 Z M 21.3125 -16.59375 "/></g></g></g><g fill="#ffffff" fill-opacity="1"><g transform="translate(351.000725, 175.426688)"><g><path d="M 18.171875 -6.3125 C 18.171875 -4.082031 17.460938 -2.359375 16.046875 -1.140625 C 14.640625 0.078125 12.804688 0.6875 10.546875 0.6875 C 7.859375 0.6875 5.8125 0.0351562 4.40625 -1.265625 L 3.390625 0.046875 C 3.253906 0.296875 3.078125 0.421875 2.859375 0.421875 C 2.472656 0.421875 2.28125 0.207031 2.28125 -0.21875 L 2.28125 -5.5625 C 2.28125 -5.988281 2.472656 -6.203125 2.859375 -6.203125 C 3.179688 -6.203125 3.394531 -5.988281 3.5 -5.5625 C 4.445312 -2.207031 6.742188 -0.53125 10.390625 -0.53125 C 11.765625 -0.53125 12.945312 -0.8125 13.9375 -1.375 C 15.207031 -2.050781 15.84375 -3.023438 15.84375 -4.296875 C 15.84375 -5.773438 14.765625 -6.882812 12.609375 -7.625 C 12.328125 -7.664062 10.632812 -8.039062 7.53125 -8.75 C 4.28125 -9.457031 2.65625 -11.238281 2.65625 -14.09375 C 2.65625 -15.125 2.847656 -16.046875 3.234375 -16.859375 C 3.617188 -17.671875 4.144531 -18.359375 4.8125 -18.921875 C 5.488281 -19.484375 6.273438 -19.914062 7.171875 -20.21875 C 8.078125 -20.519531 9.0625 -20.671875 10.125 -20.671875 C 11.78125 -20.671875 13.15625 -20.226562 14.25 -19.34375 L 15.3125 -20.359375 L 15.46875 -20.453125 C 15.613281 -20.597656 15.757812 -20.671875 15.90625 -20.671875 C 16.144531 -20.671875 16.265625 -20.476562 16.265625 -20.09375 L 16.265625 -14.734375 C 16.265625 -14.378906 16.125 -14.203125 15.84375 -14.203125 C 15.488281 -14.203125 15.296875 -14.363281 15.265625 -14.6875 C 15.015625 -16.09375 14.410156 -17.226562 13.453125 -18.09375 C 12.503906 -18.957031 11.289062 -19.390625 9.8125 -19.390625 C 8.707031 -19.390625 7.71875 -19.128906 6.84375 -18.609375 C 5.78125 -18.003906 5.25 -17.207031 5.25 -16.21875 C 5.25 -15.15625 6.304688 -14.304688 8.421875 -13.671875 C 9.203125 -13.492188 9.972656 -13.328125 10.734375 -13.171875 C 11.492188 -13.015625 12.257812 -12.847656 13.03125 -12.671875 C 16.457031 -11.679688 18.171875 -9.5625 18.171875 -6.3125 Z M 18.171875 -6.3125 "/></g></g></g><g fill="#e5d3b3" fill-opacity="1"><g transform="translate(150.452675, 209.626685)"><g><path d="M 1.84375 -13.5625 L 5.71875 -13.5625 C 7.40625 -13.5625 8.6875 -13.304688 9.5625 -12.796875 C 10.4375 -12.296875 10.875 -11.429688 10.875 -10.203125 C 10.875 -9.398438 10.648438 -8.734375 10.203125 -8.203125 C 9.753906 -7.679688 9.113281 -7.347656 8.28125 -7.203125 L 8.28125 -7.109375 C 8.851562 -7.003906 9.367188 -6.832031 9.828125 -6.59375 C 10.296875 -6.351562 10.660156 -6.007812 10.921875 -5.5625 C 11.191406 -5.125 11.328125 -4.554688 11.328125 -3.859375 C 11.328125 -2.628906 10.90625 -1.675781 10.0625 -1 C 9.21875 -0.332031 8.066406 0 6.609375 0 L 1.84375 0 Z M 3.546875 -7.796875 L 6.0625 -7.796875 C 7.21875 -7.796875 8.007812 -7.976562 8.4375 -8.34375 C 8.875 -8.71875 9.09375 -9.273438 9.09375 -10.015625 C 9.09375 -10.765625 8.832031 -11.300781 8.3125 -11.625 C 7.789062 -11.945312 6.953125 -12.109375 5.796875 -12.109375 L 3.546875 -12.109375 Z M 3.546875 -6.359375 L 3.546875 -1.4375 L 6.28125 -1.4375 C 7.488281 -1.4375 8.328125 -1.671875 8.796875 -2.140625 C 9.265625 -2.609375 9.5 -3.222656 9.5 -3.984375 C 9.5 -4.691406 9.253906 -5.265625 8.765625 -5.703125 C 8.273438 -6.140625 7.40625 -6.359375 6.15625 -6.359375 Z M 3.546875 -6.359375 "/></g></g></g><g fill="#e5d3b3" fill-opacity="1"><g transform="translate(162.800152, 209.626685)"><g><path d="M 13.6875 -6.796875 C 13.6875 -5.390625 13.445312 -4.164062 12.96875 -3.125 C 12.488281 -2.082031 11.785156 -1.269531 10.859375 -0.6875 C 9.929688 -0.101562 8.785156 0.1875 7.421875 0.1875 C 6.015625 0.1875 4.847656 -0.101562 3.921875 -0.6875 C 2.992188 -1.269531 2.300781 -2.085938 1.84375 -3.140625 C 1.382812 -4.191406 1.15625 -5.421875 1.15625 -6.828125 C 1.15625 -8.203125 1.382812 -9.410156 1.84375 -10.453125 C 2.300781 -11.503906 2.992188 -12.320312 3.921875 -12.90625 C 4.847656 -13.488281 6.023438 -13.78125 7.453125 -13.78125 C 8.804688 -13.78125 9.941406 -13.488281 10.859375 -12.90625 C 11.785156 -12.332031 12.488281 -11.519531 12.96875 -10.46875 C 13.445312 -9.425781 13.6875 -8.203125 13.6875 -6.796875 Z M 2.96875 -6.796875 C 2.96875 -5.085938 3.328125 -3.742188 4.046875 -2.765625 C 4.765625 -1.785156 5.890625 -1.296875 7.421875 -1.296875 C 8.960938 -1.296875 10.085938 -1.785156 10.796875 -2.765625 C 11.515625 -3.742188 11.875 -5.085938 11.875 -6.796875 C 11.875 -8.503906 11.519531 -9.84375 10.8125 -10.8125 C 10.101562 -11.789062 8.984375 -12.28125 7.453125 -12.28125 C 5.898438 -12.28125 4.765625 -11.789062 4.046875 -10.8125 C 3.328125 -9.84375 2.96875 -8.503906 2.96875 -6.796875 Z M 2.96875 -6.796875 "/></g></g></g><g fill="#e5d3b3" fill-opacity="1"><g transform="translate(177.636123, 209.626685)"><g><path d="M 13.6875 -6.796875 C 13.6875 -5.390625 13.445312 -4.164062 12.96875 -3.125 C 12.488281 -2.082031 11.785156 -1.269531 10.859375 -0.6875 C 9.929688 -0.101562 8.785156 0.1875 7.421875 0.1875 C 6.015625 0.1875 4.847656 -0.101562 3.921875 -0.6875 C 2.992188 -1.269531 2.300781 -2.085938 1.84375 -3.140625 C 1.382812 -4.191406 1.15625 -5.421875 1.15625 -6.828125 C 1.15625 -8.203125 1.382812 -9.410156 1.84375 -10.453125 C 2.300781 -11.503906 2.992188 -12.320312 3.921875 -12.90625 C 4.847656 -13.488281 6.023438 -13.78125 7.453125 -13.78125 C 8.804688 -13.78125 9.941406 -13.488281 10.859375 -12.90625 C 11.785156 -12.332031 12.488281 -11.519531 12.96875 -10.46875 C 13.445312 -9.425781 13.6875 -8.203125 13.6875 -6.796875 Z M 2.96875 -6.796875 C 2.96875 -5.085938 3.328125 -3.742188 4.046875 -2.765625 C 4.765625 -1.785156 5.890625 -1.296875 7.421875 -1.296875 C 8.960938 -1.296875 10.085938 -1.785156 10.796875 -2.765625 C 11.515625 -3.742188 11.875 -5.085938 11.875 -6.796875 C 11.875 -8.503906 11.519531 -9.84375 10.8125 -10.8125 C 10.101562 -11.789062 8.984375 -12.28125 7.453125 -12.28125 C 5.898438 -12.28125 4.765625 -11.789062 4.046875 -10.8125 C 3.328125 -9.84375 2.96875 -8.503906 2.96875 -6.796875 Z M 2.96875 -6.796875 "/></g></g></g><g fill="#e5d3b3" fill-opacity="1"><g transform="translate(192.472094, 209.626685)"><g><path d="M 11.765625 0 L 9.75 0 L 4.9375 -6.484375 L 3.546875 -5.265625 L 3.546875 0 L 1.84375 0 L 1.84375 -13.5625 L 3.546875 -13.5625 L 3.546875 -6.875 C 3.929688 -7.3125 4.316406 -7.742188 4.703125 -8.171875 C 5.097656 -8.597656 5.492188 -9.03125 5.890625 -9.46875 L 9.5625 -13.5625 L 11.546875 -13.5625 L 6.171875 -7.65625 Z M 11.765625 0 "/></g></g></g><g fill="#e5d3b3" fill-opacity="1"><g transform="translate(204.230691, 209.626685)"><g/></g></g><g fill="#e5d3b3" fill-opacity="1"><g transform="translate(209.454621, 209.626685)"><g><path d="M 5.59375 -13.5625 C 7.269531 -13.5625 8.507812 -13.238281 9.3125 -12.59375 C 10.125 -11.957031 10.53125 -10.992188 10.53125 -9.703125 C 10.53125 -8.984375 10.394531 -8.382812 10.125 -7.90625 C 9.863281 -7.425781 9.523438 -7.039062 9.109375 -6.75 C 8.703125 -6.457031 8.269531 -6.234375 7.8125 -6.078125 L 11.53125 0 L 9.53125 0 L 6.25 -5.609375 L 3.546875 -5.609375 L 3.546875 0 L 1.84375 0 L 1.84375 -13.5625 Z M 5.484375 -12.078125 L 3.546875 -12.078125 L 3.546875 -7.046875 L 5.59375 -7.046875 C 6.6875 -7.046875 7.488281 -7.265625 8 -7.703125 C 8.507812 -8.140625 8.765625 -8.785156 8.765625 -9.640625 C 8.765625 -10.523438 8.492188 -11.148438 7.953125 -11.515625 C 7.421875 -11.890625 6.597656 -12.078125 5.484375 -12.078125 Z M 5.484375 -12.078125 "/></g></g></g><g fill="#e5d3b3" fill-opacity="1"><g transform="translate(221.27021, 209.626685)"><g><path d="M 9.421875 0 L 1.84375 0 L 1.84375 -13.5625 L 9.421875 -13.5625 L 9.421875 -12.0625 L 3.546875 -12.0625 L 3.546875 -7.828125 L 9.078125 -7.828125 L 9.078125 -6.34375 L 3.546875 -6.34375 L 3.546875 -1.5 L 9.421875 -1.5 Z M 9.421875 0 "/></g></g></g><g fill="#e5d3b3" fill-opacity="1"><g transform="translate(231.832053, 209.626685)"><g><path d="M 11.40625 -13.5625 L 6.5625 0 L 4.84375 0 L 0 -13.5625 L 1.78125 -13.5625 L 4.84375 -4.859375 C 5.050781 -4.304688 5.21875 -3.785156 5.34375 -3.296875 C 5.476562 -2.804688 5.597656 -2.34375 5.703125 -1.90625 C 5.785156 -2.34375 5.894531 -2.804688 6.03125 -3.296875 C 6.175781 -3.796875 6.351562 -4.332031 6.5625 -4.90625 L 9.59375 -13.5625 Z M 11.40625 -13.5625 "/></g></g></g><g fill="#e5d3b3" fill-opacity="1"><g transform="translate(243.229727, 209.626685)"><g><path d="M 5.65625 0 L 0.765625 0 L 0.765625 -0.984375 L 2.359375 -1.34375 L 2.359375 -12.203125 L 0.765625 -12.578125 L 0.765625 -13.5625 L 5.65625 -13.5625 L 5.65625 -12.578125 L 4.0625 -12.203125 L 4.0625 -1.34375 L 5.65625 -0.984375 Z M 5.65625 0 "/></g></g></g><g fill="#e5d3b3" fill-opacity="1"><g transform="translate(249.669409, 209.626685)"><g><path d="M 9.421875 0 L 1.84375 0 L 1.84375 -13.5625 L 9.421875 -13.5625 L 9.421875 -12.0625 L 3.546875 -12.0625 L 3.546875 -7.828125 L 9.078125 -7.828125 L 9.078125 -6.34375 L 3.546875 -6.34375 L 3.546875 -1.5 L 9.421875 -1.5 Z M 9.421875 0 "/></g></g></g><g fill="#e5d3b3" fill-opacity="1"><g transform="translate(260.231252, 209.626685)"><g><path d="M 17.421875 -13.5625 L 13.8125 0 L 12.078125 0 L 9.4375 -8.890625 C 9.320312 -9.242188 9.21875 -9.609375 9.125 -9.984375 C 9.03125 -10.359375 8.945312 -10.6875 8.875 -10.96875 C 8.8125 -11.257812 8.773438 -11.460938 8.765625 -11.578125 C 8.742188 -11.410156 8.671875 -11.054688 8.546875 -10.515625 C 8.421875 -9.972656 8.273438 -9.410156 8.109375 -8.828125 L 5.546875 0 L 3.8125 0 L 0.234375 -13.5625 L 2.015625 -13.5625 L 4.125 -5.28125 C 4.269531 -4.695312 4.394531 -4.132812 4.5 -3.59375 C 4.613281 -3.050781 4.703125 -2.535156 4.765625 -2.046875 C 4.828125 -2.546875 4.921875 -3.085938 5.046875 -3.671875 C 5.179688 -4.253906 5.328125 -4.820312 5.484375 -5.375 L 7.890625 -13.5625 L 9.65625 -13.5625 L 12.140625 -5.3125 C 12.316406 -4.738281 12.46875 -4.160156 12.59375 -3.578125 C 12.71875 -2.992188 12.8125 -2.484375 12.875 -2.046875 C 12.925781 -2.515625 13.007812 -3.023438 13.125 -3.578125 C 13.25 -4.128906 13.390625 -4.703125 13.546875 -5.296875 L 15.640625 -13.5625 Z M 17.421875 -13.5625 "/></g></g></g><g fill="#e5d3b3" fill-opacity="1"><g transform="translate(277.897647, 209.626685)"><g/></g></g><g fill="#e5d3b3" fill-opacity="1"><g transform="translate(283.121577, 209.626685)"><g><path d="M 9.53125 -3.625 C 9.53125 -2.425781 9.09375 -1.488281 8.21875 -0.8125 C 7.351562 -0.144531 6.175781 0.1875 4.6875 0.1875 C 3.925781 0.1875 3.222656 0.128906 2.578125 0.015625 C 1.929688 -0.0976562 1.394531 -0.253906 0.96875 -0.453125 L 0.96875 -2.09375 C 1.425781 -1.882812 1.992188 -1.695312 2.671875 -1.53125 C 3.347656 -1.375 4.046875 -1.296875 4.765625 -1.296875 C 5.765625 -1.296875 6.523438 -1.488281 7.046875 -1.875 C 7.566406 -2.269531 7.828125 -2.804688 7.828125 -3.484375 C 7.828125 -3.921875 7.734375 -4.289062 7.546875 -4.59375 C 7.359375 -4.894531 7.03125 -5.171875 6.5625 -5.421875 C 6.09375 -5.679688 5.453125 -5.960938 4.640625 -6.265625 C 3.472656 -6.679688 2.597656 -7.191406 2.015625 -7.796875 C 1.429688 -8.410156 1.140625 -9.242188 1.140625 -10.296875 C 1.140625 -11.003906 1.320312 -11.617188 1.6875 -12.140625 C 2.050781 -12.660156 2.554688 -13.054688 3.203125 -13.328125 C 3.859375 -13.609375 4.613281 -13.75 5.46875 -13.75 C 6.207031 -13.75 6.882812 -13.679688 7.5 -13.546875 C 8.125 -13.410156 8.695312 -13.226562 9.21875 -13 L 8.6875 -11.53125 C 8.21875 -11.738281 7.703125 -11.910156 7.140625 -12.046875 C 6.585938 -12.179688 6.019531 -12.25 5.4375 -12.25 C 4.582031 -12.25 3.941406 -12.066406 3.515625 -11.703125 C 3.085938 -11.347656 2.875 -10.875 2.875 -10.28125 C 2.875 -9.820312 2.96875 -9.441406 3.15625 -9.140625 C 3.34375 -8.835938 3.648438 -8.5625 4.078125 -8.3125 C 4.515625 -8.0625 5.097656 -7.804688 5.828125 -7.546875 C 6.628906 -7.253906 7.304688 -6.9375 7.859375 -6.59375 C 8.410156 -6.257812 8.828125 -5.859375 9.109375 -5.390625 C 9.390625 -4.921875 9.53125 -4.332031 9.53125 -3.625 Z M 9.53125 -3.625 "/></g></g></g><g fill="#e5d3b3" fill-opacity="1"><g transform="translate(293.550451, 209.626685)"><g><path d="M 5.65625 0 L 0.765625 0 L 0.765625 -0.984375 L 2.359375 -1.34375 L 2.359375 -12.203125 L 0.765625 -12.578125 L 0.765625 -13.5625 L 5.65625 -13.5625 L 5.65625 -12.578125 L 4.0625 -12.203125 L 4.0625 -1.34375 L 5.65625 -0.984375 Z M 5.65625 0 "/></g></g></g><g fill="#e5d3b3" fill-opacity="1"><g transform="translate(299.990133, 209.626685)"><g><path d="M 6.140625 0 L 4.421875 0 L 4.421875 -12.0625 L 0.1875 -12.0625 L 0.1875 -13.5625 L 10.359375 -13.5625 L 10.359375 -12.0625 L 6.140625 -12.0625 Z M 6.140625 0 "/></g></g></g><g fill="#e5d3b3" fill-opacity="1"><g transform="translate(310.551976, 209.626685)"><g><path d="M 9.421875 0 L 1.84375 0 L 1.84375 -13.5625 L 9.421875 -13.5625 L 9.421875 -12.0625 L 3.546875 -12.0625 L 3.546875 -7.828125 L 9.078125 -7.828125 L 9.078125 -6.34375 L 3.546875 -6.34375 L 3.546875 -1.5 L 9.421875 -1.5 Z M 9.421875 0 "/></g></g></g></svg>