<svg xmlns="http://www.w3.org/2000/svg" xmlns:xlink="http://www.w3.org/1999/xlink" width="500" zoomAndPan="magnify" viewBox="0 0 375 374.999991" height="500" preserveAspectRatio="xMidYMid meet" version="1.0"><defs><g/><clipPath id="05dabe618a"><path d="M 160.328125 123 L 214.328125 123 L 214.328125 191.269531 L 160.328125 191.269531 Z M 160.328125 123 " clip-rule="nonzero"/></clipPath><clipPath id="143c01a07a"><path d="M 175 118.519531 L 200 118.519531 L 200 130 L 175 130 Z M 175 118.519531 " clip-rule="nonzero"/></clipPath></defs><rect x="-37.5" width="450" fill="#ffffff" y="-37.499999" height="449.999989" fill-opacity="1"/><rect x="-37.5" width="450" fill="#13002e" y="-37.499999" height="449.999989" fill-opacity="1"/><g clip-path="url(#05dabe618a)"><path fill="#ffd401" d="M 207.808594 191.199219 L 166.835938 191.199219 C 163.300781 191.199219 160.421875 188.289062 160.421875 184.714844 L 160.421875 129.660156 C 160.421875 126.078125 163.300781 123.167969 166.835938 123.167969 L 176.335938 123.167969 L 176.335938 125.074219 L 166.835938 125.074219 C 164.339844 125.074219 162.308594 127.128906 162.308594 129.660156 L 162.308594 184.714844 C 162.308594 187.238281 164.339844 189.292969 166.835938 189.292969 L 207.808594 189.292969 C 210.3125 189.292969 212.34375 187.238281 212.34375 184.714844 L 212.34375 129.660156 C 212.34375 127.128906 210.3125 125.074219 207.808594 125.074219 L 198.316406 125.074219 L 198.316406 123.167969 L 207.808594 123.167969 C 211.351562 123.167969 214.234375 126.078125 214.234375 129.660156 L 214.234375 184.714844 C 214.234375 188.289062 211.351562 191.199219 207.808594 191.199219 " fill-opacity="1" fill-rule="nonzero"/></g><path fill="#ffd401" d="M 204.984375 140.4375 L 182.160156 140.4375 L 182.160156 138.53125 L 204.984375 138.53125 L 204.984375 140.4375 " fill-opacity="1" fill-rule="nonzero"/><path fill="#ffd401" d="M 193.570312 145.152344 L 182.160156 145.152344 L 182.160156 143.246094 L 193.570312 143.246094 L 193.570312 145.152344 " fill-opacity="1" fill-rule="nonzero"/><path fill="#ffd401" d="M 204.984375 158.9375 L 182.160156 158.9375 L 182.160156 157.03125 L 204.984375 157.03125 L 204.984375 158.9375 " fill-opacity="1" fill-rule="nonzero"/><path fill="#ffd401" d="M 193.570312 163.652344 L 182.160156 163.652344 L 182.160156 161.746094 L 193.570312 161.746094 L 193.570312 163.652344 " fill-opacity="1" fill-rule="nonzero"/><path fill="#ffd401" d="M 204.984375 176.265625 L 182.160156 176.265625 L 182.160156 174.359375 L 204.984375 174.359375 L 204.984375 176.265625 " fill-opacity="1" fill-rule="nonzero"/><path fill="#ffd401" d="M 193.570312 180.980469 L 182.160156 180.980469 L 182.160156 179.074219 L 193.570312 179.074219 L 193.570312 180.980469 " fill-opacity="1" fill-rule="nonzero"/><path fill="#ffd401" d="M 172.691406 140.140625 L 174.273438 142.425781 L 173.253906 142.46875 L 178.199219 136.8125 L 174.308594 143.257812 L 173.917969 143.902344 L 173.28125 143.296875 L 171.265625 141.390625 L 172.691406 140.140625 " fill-opacity="1" fill-rule="nonzero"/><path fill="#ffd401" d="M 177.789062 146.417969 L 168.726562 146.417969 L 168.726562 137.261719 L 173.257812 137.261719 L 173.257812 139.167969 L 170.613281 139.167969 L 170.613281 144.511719 L 175.902344 144.511719 L 175.902344 141.839844 L 177.789062 141.839844 L 177.789062 146.417969 " fill-opacity="1" fill-rule="nonzero"/><path fill="#ffd401" d="M 170.613281 163.015625 L 175.902344 163.015625 L 175.902344 157.671875 L 170.613281 157.671875 Z M 177.789062 164.921875 L 168.726562 164.921875 L 168.726562 155.761719 L 177.789062 155.761719 L 177.789062 164.921875 " fill-opacity="1" fill-rule="nonzero"/><path fill="#ffd401" d="M 170.613281 180.34375 L 175.902344 180.34375 L 175.902344 175 L 170.613281 175 Z M 177.789062 182.253906 L 168.726562 182.253906 L 168.726562 173.09375 L 177.789062 173.09375 L 177.789062 182.253906 " fill-opacity="1" fill-rule="nonzero"/><g clip-path="url(#143c01a07a)"><path fill="#ffd401" d="M 180.972656 120.402344 C 178.9375 120.402344 177.285156 122.074219 177.285156 124.128906 C 177.285156 126.179688 178.9375 127.851562 180.972656 127.851562 L 193.679688 127.851562 C 195.714844 127.851562 197.367188 126.179688 197.367188 124.128906 C 197.367188 122.074219 195.714844 120.402344 193.679688 120.402344 Z M 193.679688 129.757812 L 180.972656 129.757812 C 177.898438 129.757812 175.398438 127.234375 175.398438 124.128906 C 175.398438 121.019531 177.898438 118.496094 180.972656 118.496094 L 193.679688 118.496094 C 196.753906 118.496094 199.253906 121.019531 199.253906 124.128906 C 199.253906 127.234375 196.753906 129.757812 193.679688 129.757812 " fill-opacity="1" fill-rule="nonzero"/></g><g fill="#ffffff" fill-opacity="1"><g transform="translate(91.463403, 228.899839)"><g><path d="M 6.546875 -3.359375 L 6.546875 -16.984375 L 4.203125 -16.984375 C 3.742188 -16.984375 3.515625 -16.671875 3.515625 -16.046875 L 3.515625 -14.640625 L 0.453125 -14.84375 L 0.453125 -19.953125 L 16.140625 -19.953125 L 16.140625 -14.84375 L 13.078125 -14.640625 L 13.078125 -16.046875 C 13.078125 -16.390625 13.023438 -16.628906 12.921875 -16.765625 C 12.828125 -16.910156 12.585938 -16.984375 12.203125 -16.984375 L 10.171875 -16.984375 L 10.171875 -2.640625 L 12.546875 -2.546875 L 12.546875 0 L 4.078125 0 L 4.078125 -2.4375 L 5.671875 -2.515625 C 6.253906 -2.578125 6.546875 -2.859375 6.546875 -3.359375 Z M 6.546875 -3.359375 "/></g></g></g><g fill="#ffffff" fill-opacity="1"><g transform="translate(113.176891, 228.899839)"><g><path d="M 10.359375 -20.3125 C 12.734375 -20.3125 14.71875 -19.46875 16.3125 -17.78125 C 17.914062 -16.101562 18.71875 -13.539062 18.71875 -10.09375 C 18.71875 -6.644531 17.921875 -4.035156 16.328125 -2.265625 C 14.742188 -0.492188 12.59375 0.390625 9.875 0.390625 C 7.164062 0.390625 5.039062 -0.488281 3.5 -2.25 C 1.96875 -4.007812 1.203125 -6.570312 1.203125 -9.9375 C 1.203125 -11.769531 1.46875 -13.378906 2 -14.765625 C 2.539062 -16.160156 3.253906 -17.238281 4.140625 -18 C 5.921875 -19.539062 7.992188 -20.3125 10.359375 -20.3125 Z M 4.953125 -10.078125 C 4.953125 -5.117188 6.671875 -2.640625 10.109375 -2.640625 C 11.953125 -2.640625 13.242188 -3.398438 13.984375 -4.921875 C 14.660156 -6.265625 15 -7.90625 15 -9.84375 C 15 -11.582031 14.695312 -13.179688 14.09375 -14.640625 C 13.757812 -15.441406 13.242188 -16.070312 12.546875 -16.53125 C 11.859375 -16.988281 10.960938 -17.21875 9.859375 -17.21875 C 8.765625 -17.21875 7.820312 -16.859375 7.03125 -16.140625 C 6.238281 -15.421875 5.691406 -14.550781 5.390625 -13.53125 C 5.097656 -12.507812 4.953125 -11.359375 4.953125 -10.078125 Z M 4.953125 -10.078125 "/></g></g></g><g fill="#ffffff" fill-opacity="1"><g transform="translate(138.219086, 228.899839)"><g/></g></g><g fill="#ffffff" fill-opacity="1"><g transform="translate(149.346685, 228.899839)"><g><path d="M 1.015625 0 L 1.015625 -2.4375 L 2.015625 -2.515625 C 2.585938 -2.578125 2.875 -2.859375 2.875 -3.359375 L 2.875 -17.3125 L 1.171875 -17.40625 L 1.171875 -19.953125 L 9.390625 -19.953125 C 12.328125 -19.953125 14.617188 -19.171875 16.265625 -17.609375 C 17.921875 -16.046875 18.75 -13.738281 18.75 -10.6875 C 18.75 -8.78125 18.5 -7.117188 18 -5.703125 C 17.5 -4.296875 16.816406 -3.195312 15.953125 -2.40625 C 14.234375 -0.800781 12.097656 0 9.546875 0 Z M 6.546875 -17.046875 L 6.546875 -2.875 L 9.59375 -2.875 C 11.320312 -2.875 12.664062 -3.492188 13.625 -4.734375 C 14.582031 -5.972656 15.0625 -7.773438 15.0625 -10.140625 C 15.0625 -14.742188 13.109375 -17.046875 9.203125 -17.046875 Z M 6.546875 -17.046875 "/></g></g></g><g fill="#ffffff" fill-opacity="1"><g transform="translate(174.418874, 228.899839)"><g><path d="M 10.359375 -20.3125 C 12.734375 -20.3125 14.71875 -19.46875 16.3125 -17.78125 C 17.914062 -16.101562 18.71875 -13.539062 18.71875 -10.09375 C 18.71875 -6.644531 17.921875 -4.035156 16.328125 -2.265625 C 14.742188 -0.492188 12.59375 0.390625 9.875 0.390625 C 7.164062 0.390625 5.039062 -0.488281 3.5 -2.25 C 1.96875 -4.007812 1.203125 -6.570312 1.203125 -9.9375 C 1.203125 -11.769531 1.46875 -13.378906 2 -14.765625 C 2.539062 -16.160156 3.253906 -17.238281 4.140625 -18 C 5.921875 -19.539062 7.992188 -20.3125 10.359375 -20.3125 Z M 4.953125 -10.078125 C 4.953125 -5.117188 6.671875 -2.640625 10.109375 -2.640625 C 11.953125 -2.640625 13.242188 -3.398438 13.984375 -4.921875 C 14.660156 -6.265625 15 -7.90625 15 -9.84375 C 15 -11.582031 14.695312 -13.179688 14.09375 -14.640625 C 13.757812 -15.441406 13.242188 -16.070312 12.546875 -16.53125 C 11.859375 -16.988281 10.960938 -17.21875 9.859375 -17.21875 C 8.765625 -17.21875 7.820312 -16.859375 7.03125 -16.140625 C 6.238281 -15.421875 5.691406 -14.550781 5.390625 -13.53125 C 5.097656 -12.507812 4.953125 -11.359375 4.953125 -10.078125 Z M 4.953125 -10.078125 "/></g></g></g><g fill="#ffffff" fill-opacity="1"><g transform="translate(199.461062, 228.899839)"><g/></g></g><g fill="#ffffff" fill-opacity="1"><g transform="translate(210.588667, 228.899839)"><g><path d="M 15.203125 0 L 0.953125 0 L 0.953125 -2.4375 L 1.953125 -2.515625 C 2.523438 -2.578125 2.8125 -2.859375 2.8125 -3.359375 L 2.8125 -17.3125 L 1.109375 -17.40625 L 1.109375 -19.953125 L 8.34375 -19.953125 L 8.34375 -17.515625 L 7.34375 -17.4375 C 6.769531 -17.375 6.484375 -17.050781 6.484375 -16.46875 L 6.484375 -3.09375 L 11.453125 -3.09375 C 11.734375 -3.09375 11.921875 -3.164062 12.015625 -3.3125 C 12.109375 -3.46875 12.15625 -3.710938 12.15625 -4.046875 L 12.15625 -6.15625 L 15.203125 -5.9375 Z M 15.203125 0 "/></g></g></g><g fill="#ffffff" fill-opacity="1"><g transform="translate(231.822354, 228.899839)"><g><path d="M 2.8125 -3.515625 L 2.8125 -17.3125 L 1.109375 -17.40625 L 1.109375 -19.953125 L 8.375 -19.953125 L 8.375 -17.515625 L 7.375 -17.4375 C 6.800781 -17.375 6.515625 -17.050781 6.515625 -16.46875 L 6.515625 -2.640625 L 8.21875 -2.546875 L 8.21875 0 L 0.953125 0 L 0.953125 -2.4375 L 1.953125 -2.515625 C 2.253906 -2.554688 2.472656 -2.640625 2.609375 -2.765625 C 2.742188 -2.898438 2.8125 -3.148438 2.8125 -3.515625 Z M 2.8125 -3.515625 "/></g></g></g><g fill="#ffffff" fill-opacity="1"><g transform="translate(246.158721, 228.899839)"><g><path d="M 7.234375 -2.703125 C 9.628906 -2.703125 10.828125 -3.660156 10.828125 -5.578125 C 10.828125 -6.578125 10.296875 -7.316406 9.234375 -7.796875 C 8.679688 -8.078125 7.957031 -8.335938 7.0625 -8.578125 C 6.175781 -8.816406 5.4375 -9.0625 4.84375 -9.3125 C 4.25 -9.5625 3.65625 -9.90625 3.0625 -10.34375 C 1.882812 -11.226562 1.296875 -12.582031 1.296875 -14.40625 C 1.296875 -16.238281 1.925781 -17.679688 3.1875 -18.734375 C 4.457031 -19.785156 6.117188 -20.3125 8.171875 -20.3125 C 10.222656 -20.3125 12.128906 -19.898438 13.890625 -19.078125 L 13.890625 -14.578125 L 10.828125 -14.375 L 10.828125 -16.109375 C 10.828125 -16.410156 10.785156 -16.628906 10.703125 -16.765625 C 10.484375 -17.148438 9.78125 -17.34375 8.59375 -17.34375 C 7.40625 -17.34375 6.523438 -17.128906 5.953125 -16.703125 C 5.378906 -16.285156 5.09375 -15.640625 5.09375 -14.765625 C 5.09375 -14.117188 5.332031 -13.554688 5.8125 -13.078125 C 6.132812 -12.753906 6.609375 -12.488281 7.234375 -12.28125 C 7.867188 -12.070312 8.539062 -11.859375 9.25 -11.640625 C 9.957031 -11.421875 10.585938 -11.179688 11.140625 -10.921875 C 11.691406 -10.660156 12.269531 -10.300781 12.875 -9.84375 C 14.09375 -8.9375 14.703125 -7.539062 14.703125 -5.65625 C 14.703125 -3.78125 14.023438 -2.300781 12.671875 -1.21875 C 11.328125 -0.144531 9.546875 0.390625 7.328125 0.390625 C 5.117188 0.390625 3.132812 -0.0195312 1.375 -0.84375 L 1.375 -5.578125 L 4.4375 -5.796875 L 4.4375 -3.953125 C 4.4375 -3.660156 4.476562 -3.441406 4.5625 -3.296875 C 4.644531 -3.160156 4.890625 -3.023438 5.296875 -2.890625 C 5.703125 -2.765625 6.347656 -2.703125 7.234375 -2.703125 Z M 7.234375 -2.703125 "/></g></g></g><g fill="#ffffff" fill-opacity="1"><g transform="translate(266.942575, 228.899839)"><g><path d="M 6.546875 -3.359375 L 6.546875 -16.984375 L 4.203125 -16.984375 C 3.742188 -16.984375 3.515625 -16.671875 3.515625 -16.046875 L 3.515625 -14.640625 L 0.453125 -14.84375 L 0.453125 -19.953125 L 16.140625 -19.953125 L 16.140625 -14.84375 L 13.078125 -14.640625 L 13.078125 -16.046875 C 13.078125 -16.390625 13.023438 -16.628906 12.921875 -16.765625 C 12.828125 -16.910156 12.585938 -16.984375 12.203125 -16.984375 L 10.171875 -16.984375 L 10.171875 -2.640625 L 12.546875 -2.546875 L 12.546875 0 L 4.078125 0 L 4.078125 -2.4375 L 5.671875 -2.515625 C 6.253906 -2.578125 6.546875 -2.859375 6.546875 -3.359375 Z M 6.546875 -3.359375 "/></g></g></g><g fill="#ffd401" fill-opacity="1"><g transform="translate(167.139369, 251.980047)"><g><path d="M 8.765625 0 L 6.6875 0 L 6.453125 -1.265625 L 6.1875 -2.15625 L 4.3125 -2.203125 L 2.640625 -2.15625 L 2.390625 -1.359375 L 2.125 0 L 0.125 0 L 3.390625 -9.65625 L 5.8125 -9.65625 Z M 5.765625 -3.734375 L 4.625 -7.75 L 4.484375 -7.75 L 3.171875 -3.734375 L 4.453125 -3.703125 Z M 5.765625 -3.734375 "/></g></g></g><g fill="#ffd401" fill-opacity="1"><g transform="translate(183.699356, 251.980047)"><g><path d="M 4.875 -9.671875 C 5.882812 -9.671875 6.660156 -9.414062 7.203125 -8.90625 C 7.753906 -8.394531 8.03125 -7.664062 8.03125 -6.71875 C 8.03125 -5.988281 7.867188 -5.347656 7.546875 -4.796875 C 7.222656 -4.253906 6.765625 -3.832031 6.171875 -3.53125 C 5.578125 -3.238281 4.878906 -3.09375 4.078125 -3.09375 L 3.125 -3.09375 L 3.125 -3.0625 L 3.203125 0 L 1.171875 0 L 1.28125 -2.875 L 1.171875 -9.65625 Z M 4.53125 -4.578125 C 5.445312 -4.835938 5.90625 -5.492188 5.90625 -6.546875 C 5.90625 -7.078125 5.765625 -7.472656 5.484375 -7.734375 C 5.210938 -8.003906 4.796875 -8.148438 4.234375 -8.171875 L 3.203125 -8.109375 L 3.15625 -4.640625 Z M 4.53125 -4.578125 "/></g></g></g><g fill="#ffd401" fill-opacity="1"><g transform="translate(199.554342, 251.980047)"><g><path d="M 4.875 -9.671875 C 5.882812 -9.671875 6.660156 -9.414062 7.203125 -8.90625 C 7.753906 -8.394531 8.03125 -7.664062 8.03125 -6.71875 C 8.03125 -5.988281 7.867188 -5.347656 7.546875 -4.796875 C 7.222656 -4.253906 6.765625 -3.832031 6.171875 -3.53125 C 5.578125 -3.238281 4.878906 -3.09375 4.078125 -3.09375 L 3.125 -3.09375 L 3.125 -3.0625 L 3.203125 0 L 1.171875 0 L 1.28125 -2.875 L 1.171875 -9.65625 Z M 4.53125 -4.578125 C 5.445312 -4.835938 5.90625 -5.492188 5.90625 -6.546875 C 5.90625 -7.078125 5.765625 -7.472656 5.484375 -7.734375 C 5.210938 -8.003906 4.796875 -8.148438 4.234375 -8.171875 L 3.203125 -8.109375 L 3.15625 -4.640625 Z M 4.53125 -4.578125 "/></g></g></g></svg>